<mxfile host="app.diagrams.net" modified="2023-08-16T05:24:06.645Z" agent="Mozilla/5.0 (Windows NT 10.0; Win64; x64) AppleWebKit/537.36 (KHTML, like Gecko) Chrome/115.0.0.0 Safari/537.36 Edg/115.0.1901.203" etag="epp79UGbPP1VEd8XuBXL" version="21.6.8" type="github">
  <diagram name="Profile Microservice" id="kIIdPjnJi_nFVVMe3VOr">
    <mxGraphModel dx="899" dy="644" grid="1" gridSize="10" guides="1" tooltips="1" connect="1" arrows="1" fold="1" page="1" pageScale="1" pageWidth="827" pageHeight="1169" math="0" shadow="0">
      <root>
        <mxCell id="0" />
        <mxCell id="1" parent="0" />
        <mxCell id="sCX7qENGcsBtxhSft7dQ-1" value="&lt;div style=&quot;&quot;&gt;&lt;span style=&quot;font-size: 8px; background-color: initial;&quot;&gt;User&lt;/span&gt;&lt;/div&gt;" style="rounded=1;whiteSpace=wrap;html=1;align=center;" parent="1" vertex="1">
          <mxGeometry x="20" y="721" width="50" height="20" as="geometry" />
        </mxCell>
        <mxCell id="sCX7qENGcsBtxhSft7dQ-2" value="" style="endArrow=classic;html=1;rounded=0;strokeWidth=1;" parent="1" edge="1">
          <mxGeometry width="50" height="50" relative="1" as="geometry">
            <mxPoint x="70" y="731" as="sourcePoint" />
            <mxPoint x="120" y="731" as="targetPoint" />
            <Array as="points">
              <mxPoint x="90" y="730.78" />
            </Array>
          </mxGeometry>
        </mxCell>
        <mxCell id="sCX7qENGcsBtxhSft7dQ-4" value="&lt;font style=&quot;font-size: 5px;&quot;&gt;&lt;b&gt;User clicks&lt;/b&gt;&lt;/font&gt;" style="text;html=1;strokeColor=none;fillColor=none;align=center;verticalAlign=middle;whiteSpace=wrap;rounded=0;" parent="1" vertex="1">
          <mxGeometry x="71" y="718" width="40" height="10" as="geometry" />
        </mxCell>
        <mxCell id="sCX7qENGcsBtxhSft7dQ-7" value="&lt;div style=&quot;&quot;&gt;&lt;span style=&quot;font-size: 8px;&quot;&gt;Profile&lt;/span&gt;&lt;/div&gt;" style="rounded=1;whiteSpace=wrap;html=1;align=center;" parent="1" vertex="1">
          <mxGeometry x="120" y="721" width="50" height="20" as="geometry" />
        </mxCell>
        <mxCell id="sCX7qENGcsBtxhSft7dQ-8" value="" style="endArrow=classic;html=1;rounded=0;strokeWidth=1;" parent="1" edge="1">
          <mxGeometry width="50" height="50" relative="1" as="geometry">
            <mxPoint x="170" y="731" as="sourcePoint" />
            <mxPoint x="220" y="731" as="targetPoint" />
            <Array as="points">
              <mxPoint x="190" y="730.78" />
            </Array>
          </mxGeometry>
        </mxCell>
        <mxCell id="sCX7qENGcsBtxhSft7dQ-9" value="&lt;span style=&quot;font-size: 5px;&quot;&gt;&lt;b&gt;Control Pass To&lt;/b&gt;&lt;/span&gt;" style="text;html=1;strokeColor=none;fillColor=none;align=center;verticalAlign=middle;whiteSpace=wrap;rounded=0;" parent="1" vertex="1">
          <mxGeometry x="171" y="718" width="40" height="10" as="geometry" />
        </mxCell>
        <mxCell id="sCX7qENGcsBtxhSft7dQ-11" value="&lt;font style=&quot;font-size: 8px;&quot;&gt;Profile Microservice&lt;/font&gt;" style="shape=cube;whiteSpace=wrap;html=1;boundedLbl=1;backgroundOutline=1;darkOpacity=0.05;darkOpacity2=0.1;" parent="1" vertex="1">
          <mxGeometry x="219" y="698" width="81" height="63" as="geometry" />
        </mxCell>
        <mxCell id="sCX7qENGcsBtxhSft7dQ-14" value="" style="endArrow=classic;html=1;rounded=0;strokeWidth=1;entryX=0;entryY=0.5;entryDx=0;entryDy=0;" parent="1" target="sCX7qENGcsBtxhSft7dQ-18" edge="1">
          <mxGeometry width="50" height="50" relative="1" as="geometry">
            <mxPoint x="300" y="731.5699999999999" as="sourcePoint" />
            <mxPoint x="330" y="732" as="targetPoint" />
            <Array as="points">
              <mxPoint x="320" y="731.3499999999999" />
            </Array>
          </mxGeometry>
        </mxCell>
        <mxCell id="sCX7qENGcsBtxhSft7dQ-15" value="" style="endArrow=none;html=1;rounded=0;" parent="1" edge="1">
          <mxGeometry width="50" height="50" relative="1" as="geometry">
            <mxPoint x="466" y="1009" as="sourcePoint" />
            <mxPoint x="466" y="589" as="targetPoint" />
          </mxGeometry>
        </mxCell>
        <mxCell id="sCX7qENGcsBtxhSft7dQ-18" value="&lt;div style=&quot;&quot;&gt;&lt;font style=&quot;font-size: 7px;&quot;&gt;Profile section&lt;/font&gt;&lt;/div&gt;" style="rounded=1;whiteSpace=wrap;html=1;align=center;" parent="1" vertex="1">
          <mxGeometry x="358" y="721" width="50" height="20" as="geometry" />
        </mxCell>
        <mxCell id="sCX7qENGcsBtxhSft7dQ-20" value="&lt;span style=&quot;font-size: 5px;&quot;&gt;&lt;b&gt;Opens Up&amp;nbsp;&lt;/b&gt;&lt;/span&gt;" style="text;html=1;strokeColor=none;fillColor=none;align=center;verticalAlign=middle;whiteSpace=wrap;rounded=0;" parent="1" vertex="1">
          <mxGeometry x="310" y="713" width="40" height="20" as="geometry" />
        </mxCell>
        <mxCell id="sCX7qENGcsBtxhSft7dQ-21" value="" style="endArrow=classic;html=1;rounded=0;strokeWidth=1;entryX=0;entryY=0.5;entryDx=0;entryDy=0;" parent="1" edge="1">
          <mxGeometry width="50" height="50" relative="1" as="geometry">
            <mxPoint x="408" y="731.29" as="sourcePoint" />
            <mxPoint x="466" y="730.72" as="targetPoint" />
            <Array as="points">
              <mxPoint x="428" y="731.0699999999999" />
            </Array>
          </mxGeometry>
        </mxCell>
        <mxCell id="sCX7qENGcsBtxhSft7dQ-24" value="" style="endArrow=classic;html=1;rounded=0;" parent="1" edge="1">
          <mxGeometry width="50" height="50" relative="1" as="geometry">
            <mxPoint x="466" y="590" as="sourcePoint" />
            <mxPoint x="550" y="590" as="targetPoint" />
          </mxGeometry>
        </mxCell>
        <mxCell id="sCX7qENGcsBtxhSft7dQ-25" value="" style="endArrow=classic;html=1;rounded=0;" parent="1" edge="1">
          <mxGeometry width="50" height="50" relative="1" as="geometry">
            <mxPoint x="466" y="731" as="sourcePoint" />
            <mxPoint x="550" y="730" as="targetPoint" />
          </mxGeometry>
        </mxCell>
        <mxCell id="sCX7qENGcsBtxhSft7dQ-29" value="&lt;div style=&quot;font-size: 10px;&quot;&gt;&lt;div style=&quot;border-color: var(--border-color);&quot;&gt;&lt;font color=&quot;#ffffff&quot;&gt;1. Change password&lt;/font&gt;&lt;/div&gt;&lt;font style=&quot;border-color: var(--border-color); font-size: 10px;&quot; color=&quot;#ffffff&quot;&gt;&lt;div style=&quot;border-color: var(--border-color);&quot;&gt;&lt;span style=&quot;border-color: var(--border-color); background-color: initial;&quot;&gt;2.System settings:&amp;nbsp; Time zone, Work shift&lt;/span&gt;&lt;/div&gt;&lt;div style=&quot;border-color: var(--border-color);&quot;&gt;&lt;span style=&quot;border-color: var(--border-color); background-color: initial;&quot;&gt;3. T &amp;amp; E support(FAQs)&lt;/span&gt;&lt;/div&gt;&lt;div style=&quot;border-color: var(--border-color);&quot;&gt;&lt;br&gt;&lt;/div&gt;&lt;/font&gt;&lt;/div&gt;" style="rounded=1;whiteSpace=wrap;html=1;fillColor=#FF3D1F;strokeColor=#FFFFFF;align=center;" parent="1" vertex="1">
          <mxGeometry x="680" y="970.5" width="120" height="88" as="geometry" />
        </mxCell>
        <mxCell id="sCX7qENGcsBtxhSft7dQ-30" value="&lt;font style=&quot;font-size: 10px;&quot; color=&quot;#ffffff&quot;&gt;Name, Address, Phone No, Email Id&lt;/font&gt;" style="rounded=1;whiteSpace=wrap;html=1;fillColor=#FF3D1F;strokeColor=#FFFFFF;" parent="1" vertex="1">
          <mxGeometry x="680" y="571.5" width="120" height="40" as="geometry" />
        </mxCell>
        <mxCell id="sCX7qENGcsBtxhSft7dQ-33" value="&lt;font color=&quot;#ffffff&quot;&gt;Your Info&lt;/font&gt;" style="rounded=1;whiteSpace=wrap;html=1;fillColor=#FF3D1F;strokeColor=#FFFFFF;" parent="1" vertex="1">
          <mxGeometry x="550" y="578" width="70" height="27" as="geometry" />
        </mxCell>
        <mxCell id="sCX7qENGcsBtxhSft7dQ-37" value="&lt;font color=&quot;#ffffff&quot;&gt;Travel settings&lt;/font&gt;" style="rounded=1;whiteSpace=wrap;html=1;fillColor=#FF3D1F;strokeColor=#FFFFFF;" parent="1" vertex="1">
          <mxGeometry x="550" y="716" width="70" height="44" as="geometry" />
        </mxCell>
        <mxCell id="sCX7qENGcsBtxhSft7dQ-38" value="&lt;font color=&quot;#ffffff&quot;&gt;Other&amp;nbsp; Settings&lt;/font&gt;" style="rounded=1;whiteSpace=wrap;html=1;fillColor=#FF3D1F;strokeColor=#FFFFFF;" parent="1" vertex="1">
          <mxGeometry x="550" y="990" width="70" height="33" as="geometry" />
        </mxCell>
        <mxCell id="sCX7qENGcsBtxhSft7dQ-42" value="&lt;font style=&quot;font-size: 10px;&quot;&gt;&amp;nbsp;Employee &amp;amp; Manger flag&amp;nbsp; Y&lt;/font&gt;" style="rhombus;whiteSpace=wrap;html=1;fillColor=#FFFFFF;" parent="1" vertex="1">
          <mxGeometry x="333" y="409" width="95" height="90" as="geometry" />
        </mxCell>
        <mxCell id="sCX7qENGcsBtxhSft7dQ-48" value="" style="endArrow=classic;html=1;rounded=0;entryX=0;entryY=0.5;entryDx=0;entryDy=0;" parent="1" target="sCX7qENGcsBtxhSft7dQ-50" edge="1">
          <mxGeometry width="50" height="50" relative="1" as="geometry">
            <mxPoint x="428" y="454" as="sourcePoint" />
            <mxPoint x="522" y="454" as="targetPoint" />
          </mxGeometry>
        </mxCell>
        <mxCell id="sCX7qENGcsBtxhSft7dQ-49" value="&lt;font color=&quot;#ffffff&quot; style=&quot;font-size: 10px;&quot;&gt;Planning to &lt;br&gt;out of office, &lt;br&gt;want to add temporary&amp;nbsp; approval manager?&lt;br&gt;Yes or No&lt;br&gt;&lt;/font&gt;" style="rhombus;whiteSpace=wrap;html=1;fillColor=#FF3D1F;" parent="1" vertex="1">
          <mxGeometry x="853.5" y="394" width="153" height="120" as="geometry" />
        </mxCell>
        <mxCell id="sCX7qENGcsBtxhSft7dQ-50" value="&lt;blockquote style=&quot;margin: 0 0 0 40px; border: none; padding: 0px;&quot;&gt;&lt;/blockquote&gt;&lt;font color=&quot;#ffffff&quot; style=&quot;font-size: 7px; background-color: rgb(255, 61, 31);&quot;&gt;Travel vacation&lt;br&gt;Reassessment :&lt;/font&gt;" style="rounded=1;whiteSpace=wrap;html=1;fillColor=#FF3D1F;strokeColor=#FFFFFF;align=center;" parent="1" vertex="1">
          <mxGeometry x="551" y="440.5" width="79" height="29.5" as="geometry" />
        </mxCell>
        <mxCell id="sCX7qENGcsBtxhSft7dQ-53" value="&lt;font style=&quot;font-size: 5px;&quot;&gt;&lt;b&gt;No&lt;/b&gt;&lt;/font&gt;" style="text;html=1;strokeColor=none;fillColor=none;align=center;verticalAlign=middle;whiteSpace=wrap;rounded=0;" parent="1" vertex="1">
          <mxGeometry x="368" y="381" width="40" height="20" as="geometry" />
        </mxCell>
        <mxCell id="sCX7qENGcsBtxhSft7dQ-57" value="&lt;div style=&quot;&quot;&gt;&lt;font style=&quot;font-size: 7px;&quot;&gt;Not available to employee&lt;/font&gt;&lt;/div&gt;" style="rounded=1;whiteSpace=wrap;html=1;align=center;" parent="1" vertex="1">
          <mxGeometry x="345.5" y="320" width="68.5" height="53" as="geometry" />
        </mxCell>
        <mxCell id="sCX7qENGcsBtxhSft7dQ-58" value="&lt;span style=&quot;font-size: 5px;&quot;&gt;&lt;b&gt;User Clicks&lt;/b&gt;&lt;/span&gt;" style="text;html=1;strokeColor=none;fillColor=none;align=center;verticalAlign=middle;whiteSpace=wrap;rounded=0;" parent="1" vertex="1">
          <mxGeometry x="490" y="712" width="40" height="20" as="geometry" />
        </mxCell>
        <mxCell id="sCX7qENGcsBtxhSft7dQ-59" value="&lt;span style=&quot;font-size: 5px;&quot;&gt;&lt;b&gt;User Clicks&lt;/b&gt;&lt;/span&gt;" style="text;html=1;strokeColor=none;fillColor=none;align=center;verticalAlign=middle;whiteSpace=wrap;rounded=0;" parent="1" vertex="1">
          <mxGeometry x="492" y="980" width="40" height="26" as="geometry" />
        </mxCell>
        <mxCell id="sCX7qENGcsBtxhSft7dQ-60" value="" style="endArrow=classic;html=1;rounded=0;entryX=0;entryY=0.5;entryDx=0;entryDy=0;" parent="1" target="sCX7qENGcsBtxhSft7dQ-30" edge="1">
          <mxGeometry width="50" height="50" relative="1" as="geometry">
            <mxPoint x="620" y="591.5" as="sourcePoint" />
            <mxPoint x="670" y="541.5" as="targetPoint" />
          </mxGeometry>
        </mxCell>
        <mxCell id="sCX7qENGcsBtxhSft7dQ-61" value="&lt;span style=&quot;font-size: 5px;&quot;&gt;&lt;b&gt;User Enters&lt;/b&gt;&lt;/span&gt;" style="text;html=1;strokeColor=none;fillColor=none;align=center;verticalAlign=middle;whiteSpace=wrap;rounded=0;" parent="1" vertex="1">
          <mxGeometry x="625" y="573.5" width="40" height="20" as="geometry" />
        </mxCell>
        <mxCell id="sCX7qENGcsBtxhSft7dQ-66" value="" style="endArrow=classic;html=1;rounded=0;entryX=0;entryY=0.5;entryDx=0;entryDy=0;" parent="1" edge="1">
          <mxGeometry width="50" height="50" relative="1" as="geometry">
            <mxPoint x="620" y="1007.5" as="sourcePoint" />
            <mxPoint x="680" y="1008" as="targetPoint" />
          </mxGeometry>
        </mxCell>
        <mxCell id="sCX7qENGcsBtxhSft7dQ-70" value="Profile container" style="shape=cylinder3;whiteSpace=wrap;html=1;boundedLbl=1;backgroundOutline=1;size=15;" parent="1" vertex="1">
          <mxGeometry x="219" y="471" width="60" height="80" as="geometry" />
        </mxCell>
        <mxCell id="sCX7qENGcsBtxhSft7dQ-71" value="" style="endArrow=classic;html=1;rounded=0;entryX=0;entryY=0;entryDx=30.5;entryDy=0;entryPerimeter=0;exitX=0.5;exitY=1;exitDx=0;exitDy=0;exitPerimeter=0;" parent="1" edge="1">
          <mxGeometry width="50" height="50" relative="1" as="geometry">
            <mxPoint x="249" y="548" as="sourcePoint" />
            <mxPoint x="249.5" y="695" as="targetPoint" />
          </mxGeometry>
        </mxCell>
        <mxCell id="sCX7qENGcsBtxhSft7dQ-72" value="&lt;font style=&quot;font-size: 7px;&quot;&gt;Fetch Profile Details&lt;/font&gt;" style="text;html=1;strokeColor=none;fillColor=none;align=center;verticalAlign=middle;whiteSpace=wrap;rounded=0;" parent="1" vertex="1">
          <mxGeometry x="246" y="599.5" width="60" height="27.5" as="geometry" />
        </mxCell>
        <mxCell id="sCX7qENGcsBtxhSft7dQ-78" value="&lt;font color=&quot;#ffffff&quot;&gt;Travel contact &lt;br&gt;&amp;nbsp;number&lt;/font&gt;" style="rounded=1;whiteSpace=wrap;html=1;fillColor=#FF3D1F;strokeColor=#FFFFFF;" parent="1" vertex="1">
          <mxGeometry x="695" y="889" width="120" height="40" as="geometry" />
        </mxCell>
        <mxCell id="sCX7qENGcsBtxhSft7dQ-85" value="&lt;span style=&quot;font-size: 5px;&quot;&gt;&lt;b&gt;User Clicks&lt;/b&gt;&lt;/span&gt;" style="text;html=1;strokeColor=none;fillColor=none;align=center;verticalAlign=middle;whiteSpace=wrap;rounded=0;" parent="1" vertex="1">
          <mxGeometry x="490" y="571.5" width="40" height="20" as="geometry" />
        </mxCell>
        <mxCell id="sCX7qENGcsBtxhSft7dQ-87" value="&lt;span style=&quot;font-size: 5px;&quot;&gt;&lt;b&gt;User Clicks&lt;/b&gt;&lt;/span&gt;" style="text;html=1;strokeColor=none;fillColor=none;align=center;verticalAlign=middle;whiteSpace=wrap;rounded=0;" parent="1" vertex="1">
          <mxGeometry x="620" y="889" width="40" height="20" as="geometry" />
        </mxCell>
        <mxCell id="sCX7qENGcsBtxhSft7dQ-90" value="&lt;span style=&quot;font-size: 5px;&quot;&gt;&lt;b&gt;User enters&lt;/b&gt;&lt;/span&gt;" style="text;html=1;strokeColor=none;fillColor=none;align=center;verticalAlign=middle;whiteSpace=wrap;rounded=0;" parent="1" vertex="1">
          <mxGeometry x="625" y="983.5" width="40" height="26" as="geometry" />
        </mxCell>
        <mxCell id="sCX7qENGcsBtxhSft7dQ-94" value="&lt;font color=&quot;#ffffff&quot;&gt;Travel contact &lt;br&gt;&amp;nbsp;number&lt;/font&gt;" style="rounded=1;whiteSpace=wrap;html=1;fillColor=#FF3D1F;strokeColor=#FFFFFF;" parent="1" vertex="1">
          <mxGeometry x="870" y="889" width="215" height="40" as="geometry" />
        </mxCell>
        <mxCell id="sCX7qENGcsBtxhSft7dQ-95" value="" style="endArrow=classic;html=1;rounded=0;entryX=-0.014;entryY=0.489;entryDx=0;entryDy=0;entryPerimeter=0;exitX=0.432;exitY=0.955;exitDx=0;exitDy=0;exitPerimeter=0;" parent="1" source="sCX7qENGcsBtxhSft7dQ-37" edge="1">
          <mxGeometry width="50" height="50" relative="1" as="geometry">
            <mxPoint x="603" y="908.56" as="sourcePoint" />
            <mxPoint x="694" y="908.56" as="targetPoint" />
            <Array as="points">
              <mxPoint x="580" y="909" />
            </Array>
          </mxGeometry>
        </mxCell>
        <mxCell id="sCX7qENGcsBtxhSft7dQ-97" value="" style="endArrow=classic;html=1;rounded=0;entryX=0;entryY=0.5;entryDx=0;entryDy=0;" parent="1" target="sCX7qENGcsBtxhSft7dQ-94" edge="1">
          <mxGeometry width="50" height="50" relative="1" as="geometry">
            <mxPoint x="815" y="909" as="sourcePoint" />
            <mxPoint x="865" y="859" as="targetPoint" />
          </mxGeometry>
        </mxCell>
        <mxCell id="sCX7qENGcsBtxhSft7dQ-100" value="&lt;span style=&quot;font-size: 5px;&quot;&gt;&lt;b&gt;User enters&lt;/b&gt;&lt;/span&gt;" style="text;html=1;strokeColor=none;fillColor=none;align=center;verticalAlign=middle;whiteSpace=wrap;rounded=0;" parent="1" vertex="1">
          <mxGeometry x="820" y="887" width="40" height="20" as="geometry" />
        </mxCell>
        <mxCell id="sCX7qENGcsBtxhSft7dQ-104" value="&lt;font color=&quot;#ffffff&quot;&gt;Next&lt;/font&gt;" style="rounded=1;whiteSpace=wrap;html=1;fillColor=#FF3D1F;strokeColor=#FFFFFF;" parent="1" vertex="1">
          <mxGeometry x="1145" y="891" width="120" height="40" as="geometry" />
        </mxCell>
        <mxCell id="sCX7qENGcsBtxhSft7dQ-105" value="&lt;font color=&quot;#ffffff&quot;&gt;&lt;span style=&quot;font-size: 10px;&quot;&gt;NEXT&lt;/span&gt;&lt;/font&gt;" style="rounded=1;whiteSpace=wrap;html=1;fillColor=#FF3D1F;strokeColor=#FFFFFF;" parent="1" vertex="1">
          <mxGeometry x="880" y="570.5" width="120" height="40" as="geometry" />
        </mxCell>
        <mxCell id="sCX7qENGcsBtxhSft7dQ-106" value="" style="endArrow=classic;html=1;rounded=0;exitX=1.013;exitY=0.516;exitDx=0;exitDy=0;exitPerimeter=0;" parent="1" edge="1">
          <mxGeometry width="50" height="50" relative="1" as="geometry">
            <mxPoint x="800" y="590.62" as="sourcePoint" />
            <mxPoint x="880" y="591" as="targetPoint" />
          </mxGeometry>
        </mxCell>
        <mxCell id="sCX7qENGcsBtxhSft7dQ-114" value="&lt;span style=&quot;font-size: 5px;&quot;&gt;&lt;b&gt;User enters&lt;/b&gt;&lt;/span&gt;" style="text;html=1;strokeColor=none;fillColor=none;align=center;verticalAlign=middle;whiteSpace=wrap;rounded=0;" parent="1" vertex="1">
          <mxGeometry x="1091" y="893.5" width="40" height="20" as="geometry" />
        </mxCell>
        <mxCell id="sCX7qENGcsBtxhSft7dQ-115" value="" style="endArrow=classic;html=1;rounded=0;entryX=0;entryY=0.5;entryDx=0;entryDy=0;exitX=0.994;exitY=0.558;exitDx=0;exitDy=0;exitPerimeter=0;" parent="1" source="sCX7qENGcsBtxhSft7dQ-94" edge="1">
          <mxGeometry width="50" height="50" relative="1" as="geometry">
            <mxPoint x="1091" y="910.9200000000001" as="sourcePoint" />
            <mxPoint x="1146" y="910.9200000000001" as="targetPoint" />
          </mxGeometry>
        </mxCell>
        <mxCell id="sCX7qENGcsBtxhSft7dQ-116" value="Profile Container" style="shape=cylinder3;whiteSpace=wrap;html=1;boundedLbl=1;backgroundOutline=1;size=15;" parent="1" vertex="1">
          <mxGeometry x="2410" y="561.5" width="130" height="158.5" as="geometry" />
        </mxCell>
        <mxCell id="sCX7qENGcsBtxhSft7dQ-118" value="&lt;font color=&quot;#ffffff&quot;&gt;&lt;span style=&quot;font-size: 10px;&quot;&gt;NEXT&lt;/span&gt;&lt;/font&gt;" style="rounded=1;whiteSpace=wrap;html=1;fillColor=#FF3D1F;strokeColor=#FFFFFF;" parent="1" vertex="1">
          <mxGeometry x="890" y="990.5" width="120" height="40" as="geometry" />
        </mxCell>
        <mxCell id="sCX7qENGcsBtxhSft7dQ-121" value="" style="endArrow=classic;html=1;rounded=0;entryX=-0.005;entryY=0.347;entryDx=0;entryDy=0;entryPerimeter=0;" parent="1" edge="1">
          <mxGeometry width="50" height="50" relative="1" as="geometry">
            <mxPoint x="800" y="1009" as="sourcePoint" />
            <mxPoint x="889.4000000000001" y="1009.3800000000001" as="targetPoint" />
          </mxGeometry>
        </mxCell>
        <mxCell id="sCX7qENGcsBtxhSft7dQ-125" value="" style="endArrow=classic;html=1;rounded=0;exitX=1;exitY=0.75;exitDx=0;exitDy=0;entryX=0;entryY=0;entryDx=0;entryDy=39.25;entryPerimeter=0;" parent="1" source="sCX7qENGcsBtxhSft7dQ-105" target="sCX7qENGcsBtxhSft7dQ-116" edge="1">
          <mxGeometry width="50" height="50" relative="1" as="geometry">
            <mxPoint x="1000" y="591.5" as="sourcePoint" />
            <mxPoint x="1500" y="280" as="targetPoint" />
            <Array as="points">
              <mxPoint x="1320" y="600" />
            </Array>
          </mxGeometry>
        </mxCell>
        <mxCell id="sCX7qENGcsBtxhSft7dQ-127" value="" style="endArrow=classic;html=1;rounded=0;" parent="1" edge="1">
          <mxGeometry width="50" height="50" relative="1" as="geometry">
            <mxPoint x="1264" y="910" as="sourcePoint" />
            <mxPoint x="1322" y="910" as="targetPoint" />
          </mxGeometry>
        </mxCell>
        <mxCell id="sCX7qENGcsBtxhSft7dQ-129" value="" style="endArrow=classic;html=1;rounded=0;exitX=1;exitY=0.5;exitDx=0;exitDy=0;" parent="1" source="sCX7qENGcsBtxhSft7dQ-118" edge="1">
          <mxGeometry width="50" height="50" relative="1" as="geometry">
            <mxPoint x="1043" y="1010.38" as="sourcePoint" />
            <mxPoint x="2414" y="689.88" as="targetPoint" />
            <Array as="points">
              <mxPoint x="1570" y="1010" />
              <mxPoint x="1570" y="687" />
              <mxPoint x="1994" y="686.88" />
            </Array>
          </mxGeometry>
        </mxCell>
        <mxCell id="sCX7qENGcsBtxhSft7dQ-133" value="Send data to be saved in profile container&amp;nbsp;" style="text;html=1;strokeColor=none;fillColor=none;align=center;verticalAlign=middle;whiteSpace=wrap;rounded=0;" parent="1" vertex="1">
          <mxGeometry x="2510" y="146.11" width="60" height="173.89" as="geometry" />
        </mxCell>
        <mxCell id="sCX7qENGcsBtxhSft7dQ-136" value="" style="endArrow=classic;html=1;rounded=0;exitX=1;exitY=0.5;exitDx=0;exitDy=0;" parent="1" edge="1">
          <mxGeometry width="50" height="50" relative="1" as="geometry">
            <mxPoint x="1006.5" y="454.25" as="sourcePoint" />
            <mxPoint x="1083" y="454" as="targetPoint" />
          </mxGeometry>
        </mxCell>
        <mxCell id="sCX7qENGcsBtxhSft7dQ-138" value="" style="endArrow=classic;html=1;rounded=0;entryX=0.5;entryY=1;entryDx=0;entryDy=0;" parent="1" target="sCX7qENGcsBtxhSft7dQ-57" edge="1">
          <mxGeometry width="50" height="50" relative="1" as="geometry">
            <mxPoint x="380" y="409" as="sourcePoint" />
            <mxPoint x="430" y="359" as="targetPoint" />
          </mxGeometry>
        </mxCell>
        <mxCell id="sCX7qENGcsBtxhSft7dQ-139" value="" style="endArrow=classic;html=1;rounded=0;" parent="1" edge="1">
          <mxGeometry width="50" height="50" relative="1" as="geometry">
            <mxPoint x="380" y="720" as="sourcePoint" />
            <mxPoint x="380" y="500" as="targetPoint" />
          </mxGeometry>
        </mxCell>
        <mxCell id="sCX7qENGcsBtxhSft7dQ-147" value="" style="endArrow=classic;html=1;rounded=0;" parent="1" edge="1">
          <mxGeometry width="50" height="50" relative="1" as="geometry">
            <mxPoint x="1173" y="453.32" as="sourcePoint" />
            <mxPoint x="1258" y="453" as="targetPoint" />
          </mxGeometry>
        </mxCell>
        <mxCell id="sCX7qENGcsBtxhSft7dQ-159" value="Yes" style="text;html=1;strokeColor=none;fillColor=none;align=center;verticalAlign=middle;whiteSpace=wrap;rounded=0;" parent="1" vertex="1">
          <mxGeometry x="1010" y="430.5" width="60" height="30" as="geometry" />
        </mxCell>
        <mxCell id="sCX7qENGcsBtxhSft7dQ-174" value="Temporary manager Field" style="text;html=1;strokeColor=none;fillColor=none;align=center;verticalAlign=middle;whiteSpace=wrap;rounded=0;" parent="1" vertex="1">
          <mxGeometry x="2380" y="213.89" width="60" height="30" as="geometry" />
        </mxCell>
        <mxCell id="sCX7qENGcsBtxhSft7dQ-175" value="Onboarding Microservice" style="shape=cube;whiteSpace=wrap;html=1;boundedLbl=1;backgroundOutline=1;darkOpacity=0.05;darkOpacity2=0.1;" parent="1" vertex="1">
          <mxGeometry x="2397" y="268.89" width="120" height="80" as="geometry" />
        </mxCell>
        <mxCell id="sCX7qENGcsBtxhSft7dQ-176" value="Async fire and forget" style="text;html=1;strokeColor=none;fillColor=none;align=center;verticalAlign=middle;whiteSpace=wrap;rounded=0;" parent="1" vertex="1">
          <mxGeometry x="2460" y="378.89" width="75" height="30" as="geometry" />
        </mxCell>
        <mxCell id="sCX7qENGcsBtxhSft7dQ-177" value="" style="endArrow=classic;html=1;rounded=0;exitX=0.555;exitY=-0.002;exitDx=0;exitDy=0;exitPerimeter=0;entryX=0.5;entryY=1;entryDx=0;entryDy=0;entryPerimeter=0;" parent="1" source="sCX7qENGcsBtxhSft7dQ-175" target="sCX7qENGcsBtxhSft7dQ-180" edge="1">
          <mxGeometry width="50" height="50" relative="1" as="geometry">
            <mxPoint x="2357" y="134.89" as="sourcePoint" />
            <mxPoint x="2451" y="188.89" as="targetPoint" />
          </mxGeometry>
        </mxCell>
        <mxCell id="sCX7qENGcsBtxhSft7dQ-179" value="" style="endArrow=classic;html=1;rounded=0;exitX=0.484;exitY=-0.007;exitDx=0;exitDy=0;exitPerimeter=0;" parent="1" edge="1">
          <mxGeometry width="50" height="50" relative="1" as="geometry">
            <mxPoint x="2455.08" y="429.11" as="sourcePoint" />
            <mxPoint x="2455" y="348.89" as="targetPoint" />
          </mxGeometry>
        </mxCell>
        <mxCell id="sCX7qENGcsBtxhSft7dQ-180" value="&lt;font style=&quot;font-size: 11px;&quot;&gt;HR &amp;amp; Company structure container&lt;/font&gt;" style="shape=cylinder3;whiteSpace=wrap;html=1;boundedLbl=1;backgroundOutline=1;size=15;" parent="1" vertex="1">
          <mxGeometry x="2426" y="83.88999999999997" width="72" height="96" as="geometry" />
        </mxCell>
        <mxCell id="P8ak96mhny76IhVilgOm-1" value="&lt;font style=&quot;font-size: 11px;&quot;&gt;HR &amp;amp; Company structure container&lt;/font&gt;" style="shape=cylinder3;whiteSpace=wrap;html=1;boundedLbl=1;backgroundOutline=1;size=15;" parent="1" vertex="1">
          <mxGeometry x="70" y="450" width="62" height="90" as="geometry" />
        </mxCell>
        <mxCell id="P8ak96mhny76IhVilgOm-2" value="Onboarding Microservice" style="shape=cube;whiteSpace=wrap;html=1;boundedLbl=1;backgroundOutline=1;darkOpacity=0.05;darkOpacity2=0.1;" parent="1" vertex="1">
          <mxGeometry x="50.5" y="599.5" width="101" height="67" as="geometry" />
        </mxCell>
        <mxCell id="P8ak96mhny76IhVilgOm-6" value="" style="endArrow=classic;html=1;rounded=0;exitX=1.006;exitY=0.593;exitDx=0;exitDy=0;exitPerimeter=0;entryX=0.24;entryY=-0.038;entryDx=0;entryDy=0;entryPerimeter=0;" parent="1" source="P8ak96mhny76IhVilgOm-2" target="sCX7qENGcsBtxhSft7dQ-11" edge="1">
          <mxGeometry width="50" height="50" relative="1" as="geometry">
            <mxPoint x="161" y="691.5" as="sourcePoint" />
            <mxPoint x="211" y="641.5" as="targetPoint" />
            <Array as="points">
              <mxPoint x="238" y="640" />
            </Array>
          </mxGeometry>
        </mxCell>
        <mxCell id="P8ak96mhny76IhVilgOm-7" value="" style="endArrow=classic;html=1;rounded=0;" parent="1" target="P8ak96mhny76IhVilgOm-2" edge="1">
          <mxGeometry width="50" height="50" relative="1" as="geometry">
            <mxPoint x="101.5" y="540" as="sourcePoint" />
            <mxPoint x="151.5" y="490" as="targetPoint" />
          </mxGeometry>
        </mxCell>
        <mxCell id="P8ak96mhny76IhVilgOm-8" value="&lt;font style=&quot;font-size: 7px;&quot;&gt;Fetch Employee &amp;amp; Manager flag Y&amp;nbsp; Details&lt;/font&gt;" style="text;html=1;strokeColor=none;fillColor=none;align=center;verticalAlign=middle;whiteSpace=wrap;rounded=0;" parent="1" vertex="1">
          <mxGeometry x="110" y="557" width="60" height="27.5" as="geometry" />
        </mxCell>
        <mxCell id="P8ak96mhny76IhVilgOm-10" value="" style="endArrow=classic;html=1;rounded=0;" parent="1" edge="1">
          <mxGeometry width="50" height="50" relative="1" as="geometry">
            <mxPoint x="466" y="1008" as="sourcePoint" />
            <mxPoint x="550" y="1007" as="targetPoint" />
          </mxGeometry>
        </mxCell>
        <mxCell id="P8ak96mhny76IhVilgOm-11" value="&lt;div style=&quot;&quot;&gt;&lt;font color=&quot;#ffffff&quot;&gt;&lt;span style=&quot;font-size: 12px;&quot;&gt;&lt;br&gt;&lt;/span&gt;&lt;/font&gt;&lt;/div&gt;&lt;font color=&quot;#ffffff&quot;&gt;&lt;div style=&quot;&quot;&gt;Seat preference, Traveller cabin,Food preference&amp;nbsp;&lt;/div&gt;&lt;/font&gt;" style="rounded=1;whiteSpace=wrap;html=1;fillColor=#FF3D1F;strokeColor=#FFFFFF;align=center;" parent="1" vertex="1">
          <mxGeometry x="1049" y="715.13" width="215" height="43.75" as="geometry" />
        </mxCell>
        <mxCell id="P8ak96mhny76IhVilgOm-12" value="&lt;font color=&quot;#ffffff&quot;&gt;Travel preferences&lt;/font&gt;" style="rounded=1;whiteSpace=wrap;html=1;fillColor=#FF3D1F;strokeColor=#FFFFFF;" parent="1" vertex="1">
          <mxGeometry x="686" y="717" width="120" height="40" as="geometry" />
        </mxCell>
        <mxCell id="P8ak96mhny76IhVilgOm-13" value="&lt;span style=&quot;font-size: 5px;&quot;&gt;&lt;b&gt;User enters&lt;/b&gt;&lt;/span&gt;" style="text;html=1;strokeColor=none;fillColor=none;align=center;verticalAlign=middle;whiteSpace=wrap;rounded=0;" parent="1" vertex="1">
          <mxGeometry x="1001" y="713.5" width="40" height="20" as="geometry" />
        </mxCell>
        <mxCell id="P8ak96mhny76IhVilgOm-14" value="" style="endArrow=classic;html=1;rounded=0;entryX=0;entryY=0.5;entryDx=0;entryDy=0;exitX=1;exitY=0.5;exitDx=0;exitDy=0;" parent="1" source="P8ak96mhny76IhVilgOm-12" edge="1">
          <mxGeometry width="50" height="50" relative="1" as="geometry">
            <mxPoint x="818" y="737" as="sourcePoint" />
            <mxPoint x="873" y="737" as="targetPoint" />
          </mxGeometry>
        </mxCell>
        <mxCell id="P8ak96mhny76IhVilgOm-15" value="&lt;font color=&quot;#ffffff&quot;&gt;Next&lt;/font&gt;" style="rounded=1;whiteSpace=wrap;html=1;fillColor=#FF3D1F;strokeColor=#FFFFFF;" parent="1" vertex="1">
          <mxGeometry x="1327" y="717" width="120" height="40" as="geometry" />
        </mxCell>
        <mxCell id="P8ak96mhny76IhVilgOm-17" value="" style="endArrow=classic;html=1;rounded=0;entryX=0;entryY=0.5;entryDx=0;entryDy=0;exitX=0.996;exitY=0.616;exitDx=0;exitDy=0;exitPerimeter=0;" parent="1" edge="1">
          <mxGeometry width="50" height="50" relative="1" as="geometry">
            <mxPoint x="990.5700000000004" y="736.5199999999998" as="sourcePoint" />
            <mxPoint x="1051.43" y="736.5699999999999" as="targetPoint" />
          </mxGeometry>
        </mxCell>
        <mxCell id="P8ak96mhny76IhVilgOm-18" value="" style="endArrow=classic;html=1;rounded=0;exitX=1;exitY=0.5;exitDx=0;exitDy=0;entryX=0;entryY=0.5;entryDx=0;entryDy=0;" parent="1" source="P8ak96mhny76IhVilgOm-11" target="P8ak96mhny76IhVilgOm-15" edge="1">
          <mxGeometry width="50" height="50" relative="1" as="geometry">
            <mxPoint x="1268" y="733.5" as="sourcePoint" />
            <mxPoint x="1326" y="733.5" as="targetPoint" />
          </mxGeometry>
        </mxCell>
        <mxCell id="P8ak96mhny76IhVilgOm-19" value="&lt;font color=&quot;#ffffff&quot;&gt;Car Type, Wifi, A/c or Non A/c&lt;/font&gt;" style="rounded=1;whiteSpace=wrap;html=1;fillColor=#FF3D1F;strokeColor=#FFFFFF;align=center;" parent="1" vertex="1">
          <mxGeometry x="1043" y="797" width="215" height="43.75" as="geometry" />
        </mxCell>
        <mxCell id="P8ak96mhny76IhVilgOm-21" value="&lt;span style=&quot;font-size: 5px;&quot;&gt;&lt;b&gt;User enters&lt;/b&gt;&lt;/span&gt;" style="text;html=1;strokeColor=none;fillColor=none;align=center;verticalAlign=middle;whiteSpace=wrap;rounded=0;" parent="1" vertex="1">
          <mxGeometry x="993" y="797" width="40" height="20" as="geometry" />
        </mxCell>
        <mxCell id="P8ak96mhny76IhVilgOm-22" value="" style="endArrow=classic;html=1;rounded=0;entryX=0;entryY=0.5;entryDx=0;entryDy=0;" parent="1" edge="1">
          <mxGeometry width="50" height="50" relative="1" as="geometry">
            <mxPoint x="989" y="819" as="sourcePoint" />
            <mxPoint x="1044" y="819" as="targetPoint" />
          </mxGeometry>
        </mxCell>
        <mxCell id="P8ak96mhny76IhVilgOm-23" value="&lt;font color=&quot;#ffffff&quot;&gt;Next&lt;/font&gt;" style="rounded=1;whiteSpace=wrap;html=1;fillColor=#FF3D1F;strokeColor=#FFFFFF;" parent="1" vertex="1">
          <mxGeometry x="1319" y="804" width="120" height="40" as="geometry" />
        </mxCell>
        <mxCell id="P8ak96mhny76IhVilgOm-25" value="" style="endArrow=classic;html=1;rounded=0;entryX=0;entryY=0.5;entryDx=0;entryDy=0;exitX=0.996;exitY=0.616;exitDx=0;exitDy=0;exitPerimeter=0;" parent="1" target="P8ak96mhny76IhVilgOm-23" edge="1">
          <mxGeometry width="50" height="50" relative="1" as="geometry">
            <mxPoint x="1258.1399999999999" y="823.9499999999998" as="sourcePoint" />
            <mxPoint x="1315" y="823.8" as="targetPoint" />
          </mxGeometry>
        </mxCell>
        <mxCell id="P8ak96mhny76IhVilgOm-26" value="" style="endArrow=classic;html=1;rounded=0;" parent="1" edge="1">
          <mxGeometry width="50" height="50" relative="1" as="geometry">
            <mxPoint x="1438" y="821" as="sourcePoint" />
            <mxPoint x="1540" y="821" as="targetPoint" />
          </mxGeometry>
        </mxCell>
        <mxCell id="P8ak96mhny76IhVilgOm-27" value="&lt;font color=&quot;#ffffff&quot;&gt;Flight&lt;/font&gt;" style="rounded=1;whiteSpace=wrap;html=1;fillColor=#FF3D1F;strokeColor=#FFFFFF;" parent="1" vertex="1">
          <mxGeometry x="870" y="717" width="120" height="40" as="geometry" />
        </mxCell>
        <mxCell id="P8ak96mhny76IhVilgOm-28" value="&lt;font color=&quot;#ffffff&quot;&gt;Cabs&lt;/font&gt;" style="rounded=1;whiteSpace=wrap;html=1;fillColor=#FF3D1F;strokeColor=#FFFFFF;" parent="1" vertex="1">
          <mxGeometry x="870" y="797" width="120" height="40" as="geometry" />
        </mxCell>
        <mxCell id="P8ak96mhny76IhVilgOm-29" value="&lt;font color=&quot;#ffffff&quot;&gt;Hotel&lt;/font&gt;" style="rounded=1;whiteSpace=wrap;html=1;fillColor=#FF3D1F;strokeColor=#FFFFFF;" parent="1" vertex="1">
          <mxGeometry x="870" y="645" width="120" height="40" as="geometry" />
        </mxCell>
        <mxCell id="P8ak96mhny76IhVilgOm-30" value="&lt;span style=&quot;font-size: 5px;&quot;&gt;&lt;b&gt;User Clicks&lt;/b&gt;&lt;/span&gt;" style="text;html=1;strokeColor=none;fillColor=none;align=center;verticalAlign=middle;whiteSpace=wrap;rounded=0;" parent="1" vertex="1">
          <mxGeometry x="816" y="713.5" width="40" height="20" as="geometry" />
        </mxCell>
        <mxCell id="P8ak96mhny76IhVilgOm-35" value="" style="endArrow=classic;html=1;rounded=0;exitX=0.5;exitY=0;exitDx=0;exitDy=0;" parent="1" source="P8ak96mhny76IhVilgOm-12" edge="1">
          <mxGeometry width="50" height="50" relative="1" as="geometry">
            <mxPoint x="776" y="658" as="sourcePoint" />
            <mxPoint x="870" y="658" as="targetPoint" />
            <Array as="points">
              <mxPoint x="746" y="658" />
            </Array>
          </mxGeometry>
        </mxCell>
        <mxCell id="P8ak96mhny76IhVilgOm-36" value="" style="endArrow=classic;html=1;rounded=0;exitX=0.5;exitY=1;exitDx=0;exitDy=0;" parent="1" source="P8ak96mhny76IhVilgOm-12" edge="1">
          <mxGeometry width="50" height="50" relative="1" as="geometry">
            <mxPoint x="820" y="867" as="sourcePoint" />
            <mxPoint x="870" y="817" as="targetPoint" />
            <Array as="points">
              <mxPoint x="746" y="817" />
            </Array>
          </mxGeometry>
        </mxCell>
        <mxCell id="P8ak96mhny76IhVilgOm-37" value="&lt;span style=&quot;font-size: 5px;&quot;&gt;&lt;b&gt;User Clicks&lt;/b&gt;&lt;/span&gt;" style="text;html=1;strokeColor=none;fillColor=none;align=center;verticalAlign=middle;whiteSpace=wrap;rounded=0;" parent="1" vertex="1">
          <mxGeometry x="802" y="638" width="40" height="20" as="geometry" />
        </mxCell>
        <mxCell id="P8ak96mhny76IhVilgOm-38" value="&lt;span style=&quot;font-size: 5px;&quot;&gt;&lt;b&gt;User Clicks&lt;/b&gt;&lt;/span&gt;" style="text;html=1;strokeColor=none;fillColor=none;align=center;verticalAlign=middle;whiteSpace=wrap;rounded=0;" parent="1" vertex="1">
          <mxGeometry x="810" y="790" width="40" height="20" as="geometry" />
        </mxCell>
        <mxCell id="P8ak96mhny76IhVilgOm-39" value="&lt;div style=&quot;&quot;&gt;&lt;font color=&quot;#ffffff&quot;&gt;Hotel rating,Food Preference&lt;/font&gt;&lt;/div&gt;" style="rounded=1;whiteSpace=wrap;html=1;fillColor=#FF3D1F;strokeColor=#FFFFFF;align=center;" parent="1" vertex="1">
          <mxGeometry x="1049" y="643.13" width="215" height="43.75" as="geometry" />
        </mxCell>
        <mxCell id="P8ak96mhny76IhVilgOm-40" value="" style="endArrow=classic;html=1;rounded=0;entryX=0;entryY=0.5;entryDx=0;entryDy=0;" parent="1" target="P8ak96mhny76IhVilgOm-43" edge="1">
          <mxGeometry width="50" height="50" relative="1" as="geometry">
            <mxPoint x="1264" y="665.01" as="sourcePoint" />
            <mxPoint x="1322" y="665.01" as="targetPoint" />
          </mxGeometry>
        </mxCell>
        <mxCell id="P8ak96mhny76IhVilgOm-43" value="&lt;font color=&quot;#ffffff&quot;&gt;Next&lt;/font&gt;" style="rounded=1;whiteSpace=wrap;html=1;fillColor=#FF3D1F;strokeColor=#FFFFFF;" parent="1" vertex="1">
          <mxGeometry x="1326" y="645" width="120" height="40" as="geometry" />
        </mxCell>
        <mxCell id="P8ak96mhny76IhVilgOm-44" value="" style="endArrow=classic;html=1;rounded=0;" parent="1" edge="1">
          <mxGeometry width="50" height="50" relative="1" as="geometry">
            <mxPoint x="991" y="664.63" as="sourcePoint" />
            <mxPoint x="1049" y="664.63" as="targetPoint" />
          </mxGeometry>
        </mxCell>
        <mxCell id="P8ak96mhny76IhVilgOm-45" value="&lt;span style=&quot;font-size: 5px;&quot;&gt;&lt;b&gt;User enters&lt;/b&gt;&lt;/span&gt;" style="text;html=1;strokeColor=none;fillColor=none;align=center;verticalAlign=middle;whiteSpace=wrap;rounded=0;" parent="1" vertex="1">
          <mxGeometry x="989" y="645.01" width="40" height="20" as="geometry" />
        </mxCell>
        <mxCell id="P8ak96mhny76IhVilgOm-46" value="Save" style="text;html=1;strokeColor=none;fillColor=none;align=center;verticalAlign=middle;whiteSpace=wrap;rounded=0;" parent="1" vertex="1">
          <mxGeometry x="813" y="561.5" width="60" height="30" as="geometry" />
        </mxCell>
        <mxCell id="P8ak96mhny76IhVilgOm-47" value="Save" style="text;html=1;strokeColor=none;fillColor=none;align=center;verticalAlign=middle;whiteSpace=wrap;rounded=0;" parent="1" vertex="1">
          <mxGeometry x="1267" y="638" width="60" height="30" as="geometry" />
        </mxCell>
        <mxCell id="P8ak96mhny76IhVilgOm-48" value="Save" style="text;html=1;strokeColor=none;fillColor=none;align=center;verticalAlign=middle;whiteSpace=wrap;rounded=0;" parent="1" vertex="1">
          <mxGeometry x="1264" y="713.5" width="60" height="30" as="geometry" />
        </mxCell>
        <mxCell id="P8ak96mhny76IhVilgOm-49" value="Save" style="text;html=1;strokeColor=none;fillColor=none;align=center;verticalAlign=middle;whiteSpace=wrap;rounded=0;" parent="1" vertex="1">
          <mxGeometry x="1256" y="797" width="60" height="30" as="geometry" />
        </mxCell>
        <mxCell id="P8ak96mhny76IhVilgOm-50" value="Save" style="text;html=1;strokeColor=none;fillColor=none;align=center;verticalAlign=middle;whiteSpace=wrap;rounded=0;" parent="1" vertex="1">
          <mxGeometry x="1263" y="884" width="60" height="30" as="geometry" />
        </mxCell>
        <mxCell id="P8ak96mhny76IhVilgOm-51" value="&lt;font color=&quot;#ffffff&quot;&gt;Next&lt;/font&gt;" style="rounded=1;whiteSpace=wrap;html=1;fillColor=#FF3D1F;strokeColor=#FFFFFF;" parent="1" vertex="1">
          <mxGeometry x="1323" y="891" width="120" height="40" as="geometry" />
        </mxCell>
        <mxCell id="P8ak96mhny76IhVilgOm-53" value="" style="endArrow=classic;html=1;rounded=0;entryX=0.018;entryY=0.513;entryDx=0;entryDy=0;entryPerimeter=0;" parent="1" target="P8ak96mhny76IhVilgOm-12" edge="1">
          <mxGeometry width="50" height="50" relative="1" as="geometry">
            <mxPoint x="619" y="737.37" as="sourcePoint" />
            <mxPoint x="690" y="737.7399999999999" as="targetPoint" />
          </mxGeometry>
        </mxCell>
        <mxCell id="P8ak96mhny76IhVilgOm-54" value="&lt;span style=&quot;font-size: 5px;&quot;&gt;&lt;b&gt;User Clicks&lt;/b&gt;&lt;/span&gt;" style="text;html=1;strokeColor=none;fillColor=none;align=center;verticalAlign=middle;whiteSpace=wrap;rounded=0;" parent="1" vertex="1">
          <mxGeometry x="626" y="716" width="40" height="20" as="geometry" />
        </mxCell>
        <mxCell id="P8ak96mhny76IhVilgOm-59" value="Save" style="text;html=1;strokeColor=none;fillColor=none;align=center;verticalAlign=middle;whiteSpace=wrap;rounded=0;" parent="1" vertex="1">
          <mxGeometry x="818" y="979.5" width="60" height="30" as="geometry" />
        </mxCell>
        <mxCell id="P8ak96mhny76IhVilgOm-60" value="" style="endArrow=classic;html=1;rounded=0;" parent="1" edge="1">
          <mxGeometry width="50" height="50" relative="1" as="geometry">
            <mxPoint x="1446" y="666.5" as="sourcePoint" />
            <mxPoint x="1540" y="667" as="targetPoint" />
          </mxGeometry>
        </mxCell>
        <mxCell id="P8ak96mhny76IhVilgOm-63" value="" style="endArrow=classic;html=1;rounded=0;exitX=0.986;exitY=0.58;exitDx=0;exitDy=0;exitPerimeter=0;" parent="1" source="P8ak96mhny76IhVilgOm-15" edge="1">
          <mxGeometry width="50" height="50" relative="1" as="geometry">
            <mxPoint x="1446" y="743.5" as="sourcePoint" />
            <mxPoint x="1540" y="740" as="targetPoint" />
          </mxGeometry>
        </mxCell>
        <mxCell id="P8ak96mhny76IhVilgOm-64" value="" style="endArrow=classic;html=1;rounded=0;exitX=1;exitY=0.5;exitDx=0;exitDy=0;" parent="1" source="P8ak96mhny76IhVilgOm-51" edge="1">
          <mxGeometry width="50" height="50" relative="1" as="geometry">
            <mxPoint x="1447" y="913.5" as="sourcePoint" />
            <mxPoint x="1541" y="910" as="targetPoint" />
          </mxGeometry>
        </mxCell>
        <mxCell id="8wwqLfJiLJ7VVBayofBk-1" value="&lt;font style=&quot;font-size: 30px;&quot;&gt;Profile Microservice&lt;/font&gt;" style="text;html=1;align=center;verticalAlign=middle;resizable=0;points=[];autosize=1;strokeColor=none;fillColor=none;" parent="1" vertex="1">
          <mxGeometry x="131" y="45" width="290" height="50" as="geometry" />
        </mxCell>
        <mxCell id="08Io56GUBInTMvae3-mh-3" value="" style="endArrow=classic;html=1;rounded=0;entryX=-0.004;entryY=0.609;entryDx=0;entryDy=0;entryPerimeter=0;" parent="1" target="sCX7qENGcsBtxhSft7dQ-116" edge="1">
          <mxGeometry width="50" height="50" relative="1" as="geometry">
            <mxPoint x="1540" y="910" as="sourcePoint" />
            <mxPoint x="1540" y="660" as="targetPoint" />
            <Array as="points">
              <mxPoint x="1540" y="660" />
            </Array>
          </mxGeometry>
        </mxCell>
        <mxCell id="08Io56GUBInTMvae3-mh-25" value="&lt;font color=&quot;#ffffff&quot;&gt;Message- TAM is set and when travel period will be end, Remove TAM (Notification)&lt;/font&gt;" style="rounded=1;whiteSpace=wrap;html=1;fillColor=#FF3D1F;strokeColor=#FFFFFF;" parent="1" vertex="1">
          <mxGeometry x="2660" y="406.5" width="170" height="78" as="geometry" />
        </mxCell>
        <mxCell id="08Io56GUBInTMvae3-mh-44" value="No" style="text;html=1;strokeColor=none;fillColor=none;align=center;verticalAlign=middle;whiteSpace=wrap;rounded=0;" parent="1" vertex="1">
          <mxGeometry x="780" y="429" width="60" height="30" as="geometry" />
        </mxCell>
        <mxCell id="08Io56GUBInTMvae3-mh-46" value="" style="endArrow=classic;html=1;rounded=0;exitX=1;exitY=0.5;exitDx=0;exitDy=0;" parent="1" source="SLerbbSwyldBixi4_GsX-20" target="sCX7qENGcsBtxhSft7dQ-49" edge="1">
          <mxGeometry width="50" height="50" relative="1" as="geometry">
            <mxPoint x="621" y="453.9999999999999" as="sourcePoint" />
            <mxPoint x="666.9799999999999" y="454.005" as="targetPoint" />
          </mxGeometry>
        </mxCell>
        <mxCell id="08Io56GUBInTMvae3-mh-47" style="edgeStyle=orthogonalEdgeStyle;rounded=0;orthogonalLoop=1;jettySize=auto;html=1;exitX=0.5;exitY=1;exitDx=0;exitDy=0;" parent="1" edge="1">
          <mxGeometry relative="1" as="geometry">
            <mxPoint x="2310" y="128.86" as="sourcePoint" />
            <mxPoint x="2310" y="128.86" as="targetPoint" />
          </mxGeometry>
        </mxCell>
        <mxCell id="08Io56GUBInTMvae3-mh-51" value="&lt;span style=&quot;font-size: 5px;&quot;&gt;&lt;b&gt;User Clicks&lt;/b&gt;&lt;/span&gt;" style="text;html=1;strokeColor=none;fillColor=none;align=center;verticalAlign=middle;whiteSpace=wrap;rounded=0;" parent="1" vertex="1">
          <mxGeometry x="475" y="434" width="40" height="20" as="geometry" />
        </mxCell>
        <mxCell id="08Io56GUBInTMvae3-mh-54" value="" style="endArrow=classic;html=1;rounded=0;exitX=0.5;exitY=1;exitDx=0;exitDy=0;" parent="1" source="sCX7qENGcsBtxhSft7dQ-49" edge="1">
          <mxGeometry width="50" height="50" relative="1" as="geometry">
            <mxPoint x="1070" y="540" as="sourcePoint" />
            <mxPoint x="580" y="470" as="targetPoint" />
            <Array as="points">
              <mxPoint x="930" y="550" />
              <mxPoint x="750" y="550" />
              <mxPoint x="580" y="550" />
            </Array>
          </mxGeometry>
        </mxCell>
        <mxCell id="08Io56GUBInTMvae3-mh-60" value="&lt;font style=&quot;font-size: 10px;&quot;&gt;&lt;font style=&quot;border-color: var(--border-color);&quot; color=&quot;#ffffff&quot;&gt;Do you want to Edit &lt;br&gt;or Remove Temporary Approval&lt;/font&gt;&lt;br style=&quot;border-color: var(--border-color); color: rgb(255, 255, 255);&quot;&gt;&lt;span style=&quot;border-color: var(--border-color); color: rgb(255, 255, 255);&quot;&gt;&amp;nbsp;Manager ?&lt;/span&gt;&lt;/font&gt;" style="rhombus;whiteSpace=wrap;html=1;fillColor=#FF3D1F;" parent="1" vertex="1">
          <mxGeometry x="629" y="128" width="203.25" height="190" as="geometry" />
        </mxCell>
        <mxCell id="08Io56GUBInTMvae3-mh-66" value="Yes" style="text;html=1;strokeColor=none;fillColor=none;align=center;verticalAlign=middle;whiteSpace=wrap;rounded=0;" parent="1" vertex="1">
          <mxGeometry x="670" y="364" width="60" height="30" as="geometry" />
        </mxCell>
        <mxCell id="SLerbbSwyldBixi4_GsX-14" value="" style="endArrow=classic;html=1;rounded=0;entryX=-0.005;entryY=0.598;entryDx=0;entryDy=0;entryPerimeter=0;" parent="1" source="SLerbbSwyldBixi4_GsX-2" edge="1">
          <mxGeometry width="50" height="50" relative="1" as="geometry">
            <mxPoint x="1350" y="443.54999999999995" as="sourcePoint" />
            <mxPoint x="1451.9500000000003" y="449.9980000000003" as="targetPoint" />
          </mxGeometry>
        </mxCell>
        <mxCell id="SLerbbSwyldBixi4_GsX-2" value="&lt;div style=&quot;&quot;&gt;&lt;font color=&quot;#ffffff&quot;&gt;&lt;span style=&quot;font-size: 8px;&quot;&gt;For assign one or more Temporary&amp;nbsp; Approval Manager click on Add TAM&amp;nbsp;&lt;/span&gt;&lt;/font&gt;&lt;/div&gt;&lt;blockquote style=&quot;margin: 0 0 0 40px; border: none; padding: 0px;&quot;&gt;&lt;/blockquote&gt;" style="rounded=1;whiteSpace=wrap;html=1;fillColor=#FF3D1F;strokeColor=#FFFFFF;align=center;" parent="1" vertex="1">
          <mxGeometry x="1258" y="425" width="110" height="51" as="geometry" />
        </mxCell>
        <mxCell id="SLerbbSwyldBixi4_GsX-15" value="&lt;font style=&quot;font-size: 9px;&quot; color=&quot;#ffffff&quot;&gt;Enter Travel Period Date&lt;/font&gt;" style="rounded=1;whiteSpace=wrap;html=1;fillColor=#FF3D1F;strokeColor=#FFFFFF;" parent="1" vertex="1">
          <mxGeometry x="1085" y="436" width="89" height="40" as="geometry" />
        </mxCell>
        <mxCell id="SLerbbSwyldBixi4_GsX-16" value="&lt;span style=&quot;font-size: 6px;&quot;&gt;&lt;b&gt;Next&lt;/b&gt;&lt;/span&gt;" style="text;html=1;strokeColor=none;fillColor=none;align=center;verticalAlign=middle;whiteSpace=wrap;rounded=0;" parent="1" vertex="1">
          <mxGeometry x="1188" y="430.5" width="51" height="26.5" as="geometry" />
        </mxCell>
        <mxCell id="SLerbbSwyldBixi4_GsX-21" value="" style="endArrow=classic;html=1;rounded=0;exitX=1;exitY=0.5;exitDx=0;exitDy=0;" parent="1" source="sCX7qENGcsBtxhSft7dQ-50" target="SLerbbSwyldBixi4_GsX-20" edge="1">
          <mxGeometry width="50" height="50" relative="1" as="geometry">
            <mxPoint x="630" y="455" as="sourcePoint" />
            <mxPoint x="871" y="457" as="targetPoint" />
          </mxGeometry>
        </mxCell>
        <mxCell id="SLerbbSwyldBixi4_GsX-20" value="&lt;div style=&quot;font-size: 7px;&quot;&gt;&lt;font style=&quot;font-size: 7px;&quot;&gt;&lt;span style=&quot;background-color: initial;&quot;&gt;&lt;font style=&quot;font-size: 7px;&quot;&gt;&amp;nbsp;Is&amp;nbsp;&lt;/font&gt;&lt;/span&gt;&lt;span style=&quot;background-color: initial;&quot;&gt;Temporary&amp;nbsp;&lt;/span&gt;&lt;/font&gt;&lt;/div&gt;&lt;div style=&quot;font-size: 7px;&quot;&gt;&lt;font style=&quot;font-size: 7px;&quot;&gt;&lt;span style=&quot;background-color: initial;&quot;&gt;&amp;nbsp; &amp;nbsp;&amp;nbsp;&lt;/span&gt;&lt;span style=&quot;background-color: initial;&quot;&gt;Approval Manager&amp;nbsp;&lt;/span&gt;&lt;/font&gt;&lt;/div&gt;&lt;div style=&quot;font-size: 7px;&quot;&gt;&lt;font style=&quot;font-size: 7px;&quot;&gt;&lt;span style=&quot;background-color: initial;&quot;&gt;&lt;font style=&quot;font-size: 7px;&quot;&gt;is&amp;nbsp;&lt;/font&gt;&lt;/span&gt;&lt;span style=&quot;background-color: initial;&quot;&gt;already&amp;nbsp;&lt;/span&gt;&lt;/font&gt;&lt;/div&gt;&lt;div style=&quot;font-size: 7px;&quot;&gt;&lt;span style=&quot;background-color: initial;&quot;&gt;&lt;font style=&quot;font-size: 7px;&quot;&gt;assigned ?&lt;/font&gt;&lt;/span&gt;&lt;/div&gt;" style="rhombus;whiteSpace=wrap;html=1;fillColor=#FFFFFF;align=center;" parent="1" vertex="1">
          <mxGeometry x="680" y="411.62" width="100" height="84.75" as="geometry" />
        </mxCell>
        <mxCell id="SLerbbSwyldBixi4_GsX-23" value="" style="endArrow=classic;html=1;rounded=0;" parent="1" edge="1">
          <mxGeometry width="50" height="50" relative="1" as="geometry">
            <mxPoint x="730" y="411" as="sourcePoint" />
            <mxPoint x="730" y="321" as="targetPoint" />
          </mxGeometry>
        </mxCell>
        <mxCell id="SLerbbSwyldBixi4_GsX-24" value="No" style="text;html=1;strokeColor=none;fillColor=none;align=center;verticalAlign=middle;whiteSpace=wrap;rounded=0;" parent="1" vertex="1">
          <mxGeometry x="878" y="514" width="60" height="30" as="geometry" />
        </mxCell>
        <mxCell id="SLerbbSwyldBixi4_GsX-26" value="&lt;div style=&quot;line-height: 120%;&quot;&gt;&lt;font style=&quot;font-size: 8px;&quot; color=&quot;#ffffff&quot;&gt;Search &amp;amp; Select Employee/Manager flag (Make him&amp;nbsp; Temporary approval manager tag Y)&lt;/font&gt;&lt;br&gt;&lt;/div&gt;&lt;blockquote style=&quot;margin: 0 0 0 40px; border: none; padding: 0px;&quot;&gt;&lt;/blockquote&gt;" style="rounded=1;whiteSpace=wrap;html=1;fillColor=#FF3D1F;strokeColor=#FFFFFF;align=center;strokeWidth=2;" parent="1" vertex="1">
          <mxGeometry x="1452" y="416.5" width="108" height="68" as="geometry" />
        </mxCell>
        <mxCell id="SLerbbSwyldBixi4_GsX-27" value="&lt;span style=&quot;font-size: 6px;&quot;&gt;&lt;b&gt;Next&lt;/b&gt;&lt;/span&gt;" style="text;html=1;strokeColor=none;fillColor=none;align=center;verticalAlign=middle;whiteSpace=wrap;rounded=0;" parent="1" vertex="1">
          <mxGeometry x="1380" y="427" width="51" height="26.5" as="geometry" />
        </mxCell>
        <mxCell id="SLerbbSwyldBixi4_GsX-29" value="" style="endArrow=classic;html=1;rounded=0;entryX=-0.005;entryY=0.598;entryDx=0;entryDy=0;entryPerimeter=0;" parent="1" edge="1">
          <mxGeometry width="50" height="50" relative="1" as="geometry">
            <mxPoint x="1559" y="450" as="sourcePoint" />
            <mxPoint x="1642.9500000000003" y="449.9980000000003" as="targetPoint" />
          </mxGeometry>
        </mxCell>
        <mxCell id="SLerbbSwyldBixi4_GsX-30" value="&lt;span style=&quot;font-size: 6px;&quot;&gt;&lt;b&gt;Next&lt;/b&gt;&lt;/span&gt;" style="text;html=1;strokeColor=none;fillColor=none;align=center;verticalAlign=middle;whiteSpace=wrap;rounded=0;" parent="1" vertex="1">
          <mxGeometry x="1567" y="423" width="60" height="33.5" as="geometry" />
        </mxCell>
        <mxCell id="SLerbbSwyldBixi4_GsX-34" value="&lt;font style=&quot;font-size: 9px;&quot; color=&quot;#ffffff&quot;&gt;select permissions for TAM from dropdown &lt;br&gt;1.Full Permission (2,3,4)&lt;br&gt;2.Travel Request &lt;br&gt;3.Cash Advance &lt;br&gt;4. Expense Approval &lt;br&gt;(here select 1.Full permission for only one TAM or Select one or more permission for more then one TAM)&lt;/font&gt;" style="rounded=1;whiteSpace=wrap;html=1;fillColor=#FF3D1F;" parent="1" vertex="1">
          <mxGeometry x="1643" y="391.62" width="227" height="118.38" as="geometry" />
        </mxCell>
        <mxCell id="SLerbbSwyldBixi4_GsX-35" value="" style="endArrow=classic;html=1;rounded=0;" parent="1" edge="1">
          <mxGeometry width="50" height="50" relative="1" as="geometry">
            <mxPoint x="1870" y="452" as="sourcePoint" />
            <mxPoint x="1990" y="452" as="targetPoint" />
          </mxGeometry>
        </mxCell>
        <mxCell id="SLerbbSwyldBixi4_GsX-36" value="&lt;span style=&quot;font-size: 6px;&quot;&gt;&lt;b&gt;Next&lt;/b&gt;&lt;/span&gt;" style="text;html=1;strokeColor=none;fillColor=none;align=center;verticalAlign=middle;whiteSpace=wrap;rounded=0;" parent="1" vertex="1">
          <mxGeometry x="1888" y="426" width="60" height="33.5" as="geometry" />
        </mxCell>
        <mxCell id="SLerbbSwyldBixi4_GsX-37" value="&lt;font color=&quot;#ffffff&quot;&gt;if user selected &lt;br&gt;Full Permission &lt;br&gt;from dropdown ?&amp;nbsp;&lt;br&gt;&lt;/font&gt;" style="rhombus;whiteSpace=wrap;html=1;fillColor=#FF3D1F;" parent="1" vertex="1">
          <mxGeometry x="1991" y="375.12" width="150" height="152.76" as="geometry" />
        </mxCell>
        <mxCell id="SLerbbSwyldBixi4_GsX-38" value="" style="endArrow=classic;html=1;rounded=0;exitX=0.5;exitY=0;exitDx=0;exitDy=0;" parent="1" source="SLerbbSwyldBixi4_GsX-37" edge="1">
          <mxGeometry width="50" height="50" relative="1" as="geometry">
            <mxPoint x="2120" y="350" as="sourcePoint" />
            <mxPoint x="1310" y="420" as="targetPoint" />
            <Array as="points">
              <mxPoint x="2066" y="180" />
              <mxPoint x="1310" y="180" />
            </Array>
          </mxGeometry>
        </mxCell>
        <mxCell id="SLerbbSwyldBixi4_GsX-39" value="" style="endArrow=classic;html=1;rounded=0;entryX=0;entryY=0.5;entryDx=0;entryDy=0;exitX=1;exitY=0.5;exitDx=0;exitDy=0;" parent="1" source="SLerbbSwyldBixi4_GsX-37" target="SLerbbSwyldBixi4_GsX-43" edge="1">
          <mxGeometry width="50" height="50" relative="1" as="geometry">
            <mxPoint x="2251" y="452" as="sourcePoint" />
            <mxPoint x="2341" y="451" as="targetPoint" />
          </mxGeometry>
        </mxCell>
        <mxCell id="SLerbbSwyldBixi4_GsX-40" value="Yes" style="text;html=1;strokeColor=none;fillColor=none;align=center;verticalAlign=middle;whiteSpace=wrap;rounded=0;" parent="1" vertex="1">
          <mxGeometry x="2200" y="424.75" width="60" height="30" as="geometry" />
        </mxCell>
        <mxCell id="SLerbbSwyldBixi4_GsX-41" value="No" style="text;html=1;strokeColor=none;fillColor=none;align=center;verticalAlign=middle;whiteSpace=wrap;rounded=0;" parent="1" vertex="1">
          <mxGeometry x="2020" y="310" width="60" height="30" as="geometry" />
        </mxCell>
        <mxCell id="SLerbbSwyldBixi4_GsX-42" value="&lt;h1&gt;&lt;br&gt;&lt;/h1&gt;" style="text;html=1;strokeColor=none;fillColor=none;spacing=5;spacingTop=-20;whiteSpace=wrap;overflow=hidden;rounded=0;" parent="1" vertex="1">
          <mxGeometry x="2210" y="220" width="190" height="120" as="geometry" />
        </mxCell>
        <mxCell id="SLerbbSwyldBixi4_GsX-43" value="&lt;font color=&quot;#ffffff&quot;&gt;&lt;span style=&quot;font-size: 10px;&quot;&gt;Next&lt;/span&gt;&lt;/font&gt;" style="rounded=1;whiteSpace=wrap;html=1;fillColor=#FF3D1F;strokeColor=#FFFFFF;" parent="1" vertex="1">
          <mxGeometry x="2402" y="430.5" width="120" height="40" as="geometry" />
        </mxCell>
        <mxCell id="SLerbbSwyldBixi4_GsX-47" value="&lt;font color=&quot;#ffffff&quot;&gt;You are assigned as TAM for all permission or specific one &amp;amp; more&amp;nbsp; (Notification)&lt;/font&gt;" style="rounded=1;whiteSpace=wrap;html=1;fillColor=#FF3D1F;strokeColor=#FFFFFF;" parent="1" vertex="1">
          <mxGeometry x="2661.5" y="492.5" width="167" height="78" as="geometry" />
        </mxCell>
        <mxCell id="SLerbbSwyldBixi4_GsX-48" value="&lt;font style=&quot;font-size: 8px;&quot;&gt;employees who have been assigned as TAMs&lt;/font&gt;" style="text;html=1;strokeColor=none;fillColor=none;align=center;verticalAlign=middle;whiteSpace=wrap;rounded=0;rotation=0;" parent="1" vertex="1">
          <mxGeometry x="2535" y="499" width="97" height="30" as="geometry" />
        </mxCell>
        <mxCell id="SLerbbSwyldBixi4_GsX-49" value="" style="endArrow=classic;html=1;rounded=0;entryX=-0.001;entryY=0.617;entryDx=0;entryDy=0;exitX=0.5;exitY=1;exitDx=0;exitDy=0;entryPerimeter=0;" parent="1" source="SLerbbSwyldBixi4_GsX-43" target="SLerbbSwyldBixi4_GsX-47" edge="1">
          <mxGeometry width="50" height="50" relative="1" as="geometry">
            <mxPoint x="2510" y="457.91999999999996" as="sourcePoint" />
            <mxPoint x="2616.9199999999996" y="498.6940000000001" as="targetPoint" />
            <Array as="points">
              <mxPoint x="2462" y="541" />
            </Array>
          </mxGeometry>
        </mxCell>
        <mxCell id="SLerbbSwyldBixi4_GsX-51" value="" style="endArrow=classic;html=1;rounded=0;exitX=1;exitY=0.5;exitDx=0;exitDy=0;entryX=0.5;entryY=0;entryDx=0;entryDy=0;" parent="1" source="SLerbbSwyldBixi4_GsX-59" target="SLerbbSwyldBixi4_GsX-15" edge="1">
          <mxGeometry width="50" height="50" relative="1" as="geometry">
            <mxPoint x="830" y="330" as="sourcePoint" />
            <mxPoint x="930" y="390" as="targetPoint" />
            <Array as="points">
              <mxPoint x="1130" y="224" />
            </Array>
          </mxGeometry>
        </mxCell>
        <mxCell id="SLerbbSwyldBixi4_GsX-53" value="&lt;h1&gt;&lt;br&gt;&lt;/h1&gt;&lt;p&gt;&lt;br&gt;&lt;/p&gt;" style="text;html=1;strokeColor=none;fillColor=none;spacing=5;spacingTop=-20;whiteSpace=wrap;overflow=hidden;rounded=0;" parent="1" vertex="1">
          <mxGeometry x="1100" y="123.89" width="190" height="120" as="geometry" />
        </mxCell>
        <mxCell id="SLerbbSwyldBixi4_GsX-54" value="Save" style="text;html=1;strokeColor=none;fillColor=none;align=center;verticalAlign=middle;whiteSpace=wrap;rounded=0;" parent="1" vertex="1">
          <mxGeometry x="2397" y="386.5" width="60" height="30" as="geometry" />
        </mxCell>
        <mxCell id="SLerbbSwyldBixi4_GsX-56" value="" style="endArrow=classic;html=1;rounded=0;entryX=-0.02;entryY=0.418;entryDx=0;entryDy=0;entryPerimeter=0;" parent="1" edge="1">
          <mxGeometry width="50" height="50" relative="1" as="geometry">
            <mxPoint x="730" y="129" as="sourcePoint" />
            <mxPoint x="2424.56" y="116.01800000000003" as="targetPoint" />
            <Array as="points">
              <mxPoint x="730" y="110" />
            </Array>
          </mxGeometry>
        </mxCell>
        <mxCell id="SLerbbSwyldBixi4_GsX-58" value="User Clicks" style="text;html=1;strokeColor=none;fillColor=none;align=center;verticalAlign=middle;whiteSpace=wrap;rounded=0;" parent="1" vertex="1">
          <mxGeometry x="730" y="83.89" width="60" height="30" as="geometry" />
        </mxCell>
        <mxCell id="SLerbbSwyldBixi4_GsX-60" value="" style="endArrow=classic;html=1;rounded=0;exitX=1;exitY=0.5;exitDx=0;exitDy=0;entryX=0.5;entryY=0;entryDx=0;entryDy=0;" parent="1" source="08Io56GUBInTMvae3-mh-60" target="SLerbbSwyldBixi4_GsX-59" edge="1">
          <mxGeometry width="50" height="50" relative="1" as="geometry">
            <mxPoint x="832" y="224" as="sourcePoint" />
            <mxPoint x="1130" y="436" as="targetPoint" />
            <Array as="points">
              <mxPoint x="920" y="224" />
            </Array>
          </mxGeometry>
        </mxCell>
        <mxCell id="SLerbbSwyldBixi4_GsX-59" value="&lt;font size=&quot;1&quot; color=&quot;#ffffff&quot;&gt;Edit&lt;/font&gt;" style="rounded=1;whiteSpace=wrap;html=1;fillColor=#FF3D1F;strokeColor=#FFFFFF;" parent="1" vertex="1">
          <mxGeometry x="885.5" y="203.89" width="89" height="40" as="geometry" />
        </mxCell>
        <mxCell id="SLerbbSwyldBixi4_GsX-61" value="Clicks" style="text;html=1;strokeColor=none;fillColor=none;align=center;verticalAlign=middle;whiteSpace=wrap;rounded=0;" parent="1" vertex="1">
          <mxGeometry x="832.25" y="203.89" width="60" height="30" as="geometry" />
        </mxCell>
        <mxCell id="SLerbbSwyldBixi4_GsX-62" value="&lt;font size=&quot;1&quot; color=&quot;#ffffff&quot;&gt;Remove&lt;/font&gt;" style="rounded=1;whiteSpace=wrap;html=1;fillColor=#FF3D1F;strokeColor=#FFFFFF;" parent="1" vertex="1">
          <mxGeometry x="836" y="88.99999999999999" width="89" height="40" as="geometry" />
        </mxCell>
        <mxCell id="SLerbbSwyldBixi4_GsX-64" value="&lt;div style=&quot;font-size: 7px;&quot;&gt;&lt;div style=&quot;border-color: var(--border-color);&quot;&gt;&lt;font style=&quot;font-size: 7px;&quot;&gt;Temporary Approval&amp;nbsp;&lt;/font&gt;&lt;/div&gt;&lt;div style=&quot;border-color: var(--border-color);&quot;&gt;&lt;font style=&quot;font-size: 7px;&quot;&gt;Manager will be deleted&amp;nbsp;&lt;/font&gt;&lt;/div&gt;&lt;div style=&quot;border-color: var(--border-color);&quot;&gt;&lt;font style=&quot;font-size: 7px;&quot;&gt;and the user will be&amp;nbsp;&lt;/font&gt;&lt;/div&gt;&lt;div style=&quot;border-color: var(--border-color);&quot;&gt;&lt;font style=&quot;font-size: 7px;&quot;&gt;assigned&lt;/font&gt;&lt;/div&gt;&lt;div style=&quot;border-color: var(--border-color);&quot;&gt;&lt;font style=&quot;font-size: 7px;&quot;&gt;&amp;nbsp;Manager again.&lt;/font&gt;&lt;br&gt;&lt;/div&gt;&lt;/div&gt;" style="rhombus;whiteSpace=wrap;html=1;fillColor=#FFFFFF;align=center;" parent="1" vertex="1">
          <mxGeometry x="985" y="62.31" width="100" height="93.38" as="geometry" />
        </mxCell>
        <mxCell id="SLerbbSwyldBixi4_GsX-66" value="&lt;div style=&quot;font-size: 11px;&quot;&gt;&lt;font style=&quot;font-size: 11px;&quot;&gt;user can do&lt;/font&gt;&lt;/div&gt;&lt;div style=&quot;font-size: 11px;&quot;&gt;&lt;font style=&quot;font-size: 11px;&quot;&gt;&amp;nbsp;modification&lt;/font&gt;&lt;/div&gt;&lt;div style=&quot;font-size: 11px;&quot;&gt;&lt;font style=&quot;font-size: 11px;&quot;&gt;&amp;nbsp;with&amp;nbsp;&lt;/font&gt;&lt;/div&gt;&lt;div style=&quot;font-size: 11px;&quot;&gt;&lt;font style=&quot;font-size: 11px;&quot;&gt;details and&lt;/font&gt;&lt;/div&gt;&lt;div style=&quot;font-size: 11px;&quot;&gt;&lt;font style=&quot;font-size: 11px;&quot;&gt;save it again&lt;/font&gt;&lt;br&gt;&lt;/div&gt;" style="rhombus;whiteSpace=wrap;html=1;fillColor=#FFFFFF;align=center;" parent="1" vertex="1">
          <mxGeometry x="1000" y="159.89" width="130" height="130" as="geometry" />
        </mxCell>
        <mxCell id="SLerbbSwyldBixi4_GsX-67" value="" style="endArrow=classic;html=1;rounded=0;entryX=0.006;entryY=0.572;entryDx=0;entryDy=0;entryPerimeter=0;" parent="1" source="SLerbbSwyldBixi4_GsX-43" target="08Io56GUBInTMvae3-mh-25" edge="1">
          <mxGeometry width="50" height="50" relative="1" as="geometry">
            <mxPoint x="2650" y="490" as="sourcePoint" />
            <mxPoint x="2700" y="440" as="targetPoint" />
          </mxGeometry>
        </mxCell>
        <mxCell id="SLerbbSwyldBixi4_GsX-68" value="User gets" style="text;html=1;strokeColor=none;fillColor=none;align=center;verticalAlign=middle;whiteSpace=wrap;rounded=0;" parent="1" vertex="1">
          <mxGeometry x="2559" y="424" width="60" height="30" as="geometry" />
        </mxCell>
        <mxCell id="SLerbbSwyldBixi4_GsX-70" value="&lt;font style=&quot;font-size: 10px;&quot;&gt;&amp;nbsp;Employee&amp;nbsp;&lt;br&gt;&amp;nbsp;flag&amp;nbsp; Y&lt;/font&gt;" style="rhombus;whiteSpace=wrap;html=1;fillColor=#FFFFFF;" parent="1" vertex="1">
          <mxGeometry x="335.5" y="1070" width="95" height="90" as="geometry" />
        </mxCell>
        <mxCell id="SLerbbSwyldBixi4_GsX-78" value="" style="endArrow=classic;html=1;rounded=0;exitX=0.5;exitY=1;exitDx=0;exitDy=0;entryX=0.5;entryY=0;entryDx=0;entryDy=0;" parent="1" source="sCX7qENGcsBtxhSft7dQ-18" target="SLerbbSwyldBixi4_GsX-70" edge="1">
          <mxGeometry width="50" height="50" relative="1" as="geometry">
            <mxPoint x="234.5" y="857" as="sourcePoint" />
            <mxPoint x="378" y="857" as="targetPoint" />
          </mxGeometry>
        </mxCell>
        <mxCell id="SLerbbSwyldBixi4_GsX-79" value="&lt;font style=&quot;font-size: 8px;&quot; color=&quot;#ffffff&quot;&gt;Add Delegate to manage T&amp;amp;E&lt;/font&gt;&lt;br&gt;&lt;blockquote style=&quot;margin: 0 0 0 40px; border: none; padding: 0px;&quot;&gt;&lt;/blockquote&gt;" style="rounded=1;whiteSpace=wrap;html=1;fillColor=#FF3D1F;strokeColor=#FFFFFF;align=center;" parent="1" vertex="1">
          <mxGeometry x="660" y="1093.84" width="70" height="40" as="geometry" />
        </mxCell>
        <mxCell id="SLerbbSwyldBixi4_GsX-80" value="" style="endArrow=classic;html=1;rounded=0;exitX=1;exitY=0.5;exitDx=0;exitDy=0;" parent="1" source="SLerbbSwyldBixi4_GsX-70" edge="1">
          <mxGeometry width="50" height="50" relative="1" as="geometry">
            <mxPoint x="430.5" y="1117.56" as="sourcePoint" />
            <mxPoint x="500" y="1115" as="targetPoint" />
          </mxGeometry>
        </mxCell>
        <mxCell id="SLerbbSwyldBixi4_GsX-81" value="&lt;b style=&quot;border-color: var(--border-color); font-size: 5px;&quot;&gt;User Clicks&lt;/b&gt;" style="text;html=1;strokeColor=none;fillColor=none;align=center;verticalAlign=middle;whiteSpace=wrap;rounded=0;" parent="1" vertex="1">
          <mxGeometry x="440" y="1090" width="40" height="26" as="geometry" />
        </mxCell>
        <mxCell id="SLerbbSwyldBixi4_GsX-82" value="&lt;div style=&quot;line-height: 120%;&quot;&gt;&lt;font style=&quot;font-size: 8px;&quot; color=&quot;#ffffff&quot;&gt;Search &amp;amp; Select Employee flag Y(give access to create and submit expense behalf of you)&lt;/font&gt;&lt;br&gt;&lt;/div&gt;&lt;blockquote style=&quot;margin: 0 0 0 40px; border: none; padding: 0px;&quot;&gt;&lt;/blockquote&gt;" style="rounded=1;whiteSpace=wrap;html=1;fillColor=#FF3D1F;strokeColor=#FFFFFF;align=center;strokeWidth=2;" parent="1" vertex="1">
          <mxGeometry x="948" y="1083" width="108" height="68" as="geometry" />
        </mxCell>
        <mxCell id="SLerbbSwyldBixi4_GsX-87" value="" style="endArrow=classic;html=1;rounded=0;exitX=1;exitY=0.5;exitDx=0;exitDy=0;" parent="1" edge="1">
          <mxGeometry width="50" height="50" relative="1" as="geometry">
            <mxPoint x="1055" y="1115.88" as="sourcePoint" />
            <mxPoint x="1130" y="1115.7600000000002" as="targetPoint" />
          </mxGeometry>
        </mxCell>
        <mxCell id="SLerbbSwyldBixi4_GsX-88" value="&lt;span style=&quot;font-size: 5px;&quot;&gt;&lt;b&gt;Next&lt;/b&gt;&lt;/span&gt;" style="text;html=1;strokeColor=none;fillColor=none;align=center;verticalAlign=middle;whiteSpace=wrap;rounded=0;" parent="1" vertex="1">
          <mxGeometry x="1065" y="1090" width="40" height="26" as="geometry" />
        </mxCell>
        <mxCell id="SLerbbSwyldBixi4_GsX-91" value="&lt;font style=&quot;font-size: 8px;&quot;&gt;Authorize another &lt;br&gt;user to create, submit expense reports on your behalf&lt;/font&gt;" style="rhombus;whiteSpace=wrap;html=1;fillColor=#FFFFFF;" parent="1" vertex="1">
          <mxGeometry x="780" y="1065" width="110" height="100" as="geometry" />
        </mxCell>
        <mxCell id="SLerbbSwyldBixi4_GsX-94" value="&lt;font style=&quot;font-size: 7px;&quot; color=&quot;#ffffff&quot;&gt;Add end date of Authorize for access&amp;nbsp;&lt;/font&gt;" style="rounded=1;whiteSpace=wrap;html=1;fillColor=#FF3D1F;strokeColor=#FFFFFF;verticalAlign=middle;horizontal=1;fontSize=7;" parent="1" vertex="1">
          <mxGeometry x="1130" y="1091.2" width="89.5" height="51.6" as="geometry" />
        </mxCell>
        <mxCell id="SLerbbSwyldBixi4_GsX-106" style="edgeStyle=orthogonalEdgeStyle;rounded=0;orthogonalLoop=1;jettySize=auto;html=1;exitX=0.5;exitY=1;exitDx=0;exitDy=0;" parent="1" edge="1">
          <mxGeometry relative="1" as="geometry">
            <mxPoint x="1643" y="1160.97" as="sourcePoint" />
            <mxPoint x="1643" y="1160.97" as="targetPoint" />
          </mxGeometry>
        </mxCell>
        <mxCell id="SLerbbSwyldBixi4_GsX-111" value="&lt;div style=&quot;font-size: 7px;&quot;&gt;&lt;font style=&quot;font-size: 7px;&quot;&gt;&lt;span style=&quot;background-color: initial;&quot;&gt;&lt;font style=&quot;font-size: 7px;&quot;&gt;&amp;nbsp; Delegate&lt;/font&gt;&lt;/span&gt;&lt;/font&gt;&lt;/div&gt;&lt;div style=&quot;font-size: 7px;&quot;&gt;&lt;span style=&quot;background-color: initial;&quot;&gt;&lt;font style=&quot;font-size: 7px;&quot;&gt;assigned ?&lt;/font&gt;&lt;/span&gt;&lt;/div&gt;" style="rhombus;whiteSpace=wrap;html=1;fillColor=#FFFFFF;align=center;" parent="1" vertex="1">
          <mxGeometry x="500" y="1072.19" width="100" height="84.75" as="geometry" />
        </mxCell>
        <mxCell id="SLerbbSwyldBixi4_GsX-112" value="" style="endArrow=classic;html=1;rounded=0;exitX=1;exitY=0.5;exitDx=0;exitDy=0;" parent="1" source="SLerbbSwyldBixi4_GsX-111" edge="1">
          <mxGeometry width="50" height="50" relative="1" as="geometry">
            <mxPoint x="620" y="1190" as="sourcePoint" />
            <mxPoint x="660" y="1115" as="targetPoint" />
          </mxGeometry>
        </mxCell>
        <mxCell id="SLerbbSwyldBixi4_GsX-113" value="" style="endArrow=classic;html=1;rounded=0;exitX=1;exitY=0.5;exitDx=0;exitDy=0;" parent="1" source="SLerbbSwyldBixi4_GsX-91" edge="1">
          <mxGeometry width="50" height="50" relative="1" as="geometry">
            <mxPoint x="892.25" y="1114.64" as="sourcePoint" />
            <mxPoint x="952.25" y="1114.64" as="targetPoint" />
          </mxGeometry>
        </mxCell>
        <mxCell id="SLerbbSwyldBixi4_GsX-114" value="" style="endArrow=classic;html=1;rounded=0;exitX=1.014;exitY=0.574;exitDx=0;exitDy=0;exitPerimeter=0;" parent="1" source="SLerbbSwyldBixi4_GsX-79" edge="1">
          <mxGeometry width="50" height="50" relative="1" as="geometry">
            <mxPoint x="720" y="1116" as="sourcePoint" />
            <mxPoint x="780" y="1116" as="targetPoint" />
          </mxGeometry>
        </mxCell>
        <mxCell id="SLerbbSwyldBixi4_GsX-115" value="&lt;span style=&quot;font-size: 5px;&quot;&gt;&lt;b&gt;No&lt;/b&gt;&lt;/span&gt;" style="text;html=1;strokeColor=none;fillColor=none;align=center;verticalAlign=middle;whiteSpace=wrap;rounded=0;" parent="1" vertex="1">
          <mxGeometry x="610" y="1093.84" width="40" height="26" as="geometry" />
        </mxCell>
        <mxCell id="SLerbbSwyldBixi4_GsX-116" value="" style="endArrow=classic;html=1;rounded=0;exitX=0.5;exitY=1;exitDx=0;exitDy=0;" parent="1" source="SLerbbSwyldBixi4_GsX-111" edge="1">
          <mxGeometry width="50" height="50" relative="1" as="geometry">
            <mxPoint x="630" y="1260" as="sourcePoint" />
            <mxPoint x="550" y="1200" as="targetPoint" />
          </mxGeometry>
        </mxCell>
        <mxCell id="SLerbbSwyldBixi4_GsX-117" value="&lt;span style=&quot;font-size: 5px;&quot;&gt;&lt;b&gt;Yes&lt;/b&gt;&lt;/span&gt;" style="text;html=1;strokeColor=none;fillColor=none;align=center;verticalAlign=middle;whiteSpace=wrap;rounded=0;" parent="1" vertex="1">
          <mxGeometry x="540" y="1156.94" width="40" height="23.06" as="geometry" />
        </mxCell>
        <mxCell id="SLerbbSwyldBixi4_GsX-118" value="&lt;font style=&quot;font-size: 8px;&quot; color=&quot;#ffffff&quot;&gt;Edit/Remove Delegate&lt;/font&gt;&lt;br&gt;&lt;blockquote style=&quot;margin: 0 0 0 40px; border: none; padding: 0px;&quot;&gt;&lt;/blockquote&gt;" style="rounded=1;whiteSpace=wrap;html=1;fillColor=#FF3D1F;strokeColor=#FFFFFF;align=center;" parent="1" vertex="1">
          <mxGeometry x="520" y="1204" width="70" height="36" as="geometry" />
        </mxCell>
        <mxCell id="SLerbbSwyldBixi4_GsX-119" value="" style="endArrow=classic;html=1;rounded=0;exitX=1;exitY=0.5;exitDx=0;exitDy=0;" parent="1" source="SLerbbSwyldBixi4_GsX-118" edge="1">
          <mxGeometry width="50" height="50" relative="1" as="geometry">
            <mxPoint x="630" y="1260" as="sourcePoint" />
            <mxPoint x="680" y="1222" as="targetPoint" />
          </mxGeometry>
        </mxCell>
        <mxCell id="SLerbbSwyldBixi4_GsX-120" value="Do you want to edit or remove Delegate?" style="rhombus;whiteSpace=wrap;html=1;fillColor=#FFFFFF;" parent="1" vertex="1">
          <mxGeometry x="680" y="1166" width="150" height="112" as="geometry" />
        </mxCell>
        <mxCell id="SLerbbSwyldBixi4_GsX-121" value="" style="endArrow=classic;html=1;rounded=0;exitX=1;exitY=0.5;exitDx=0;exitDy=0;entryX=0;entryY=0.5;entryDx=0;entryDy=0;" parent="1" target="SLerbbSwyldBixi4_GsX-124" edge="1">
          <mxGeometry width="50" height="50" relative="1" as="geometry">
            <mxPoint x="830" y="1221.67" as="sourcePoint" />
            <mxPoint x="920" y="1221.67" as="targetPoint" />
            <Array as="points">
              <mxPoint x="940" y="1224" />
            </Array>
          </mxGeometry>
        </mxCell>
        <mxCell id="SLerbbSwyldBixi4_GsX-122" value="" style="endArrow=classic;html=1;rounded=0;exitX=0.5;exitY=1;exitDx=0;exitDy=0;" parent="1" source="SLerbbSwyldBixi4_GsX-120" edge="1">
          <mxGeometry width="50" height="50" relative="1" as="geometry">
            <mxPoint x="803.5" y="1369" as="sourcePoint" />
            <mxPoint x="755" y="1350" as="targetPoint" />
          </mxGeometry>
        </mxCell>
        <mxCell id="SLerbbSwyldBixi4_GsX-123" value="&lt;span style=&quot;font-size: 5px;&quot;&gt;&lt;b&gt;User Clicks&lt;/b&gt;&lt;/span&gt;" style="text;html=1;strokeColor=none;fillColor=none;align=center;verticalAlign=middle;whiteSpace=wrap;rounded=0;" parent="1" vertex="1">
          <mxGeometry x="852.25" y="1190" width="40" height="23.06" as="geometry" />
        </mxCell>
        <mxCell id="SLerbbSwyldBixi4_GsX-124" value="&lt;font size=&quot;1&quot; color=&quot;#ffffff&quot;&gt;Edit&lt;/font&gt;" style="rounded=1;whiteSpace=wrap;html=1;fillColor=#FF3D1F;strokeColor=#FFFFFF;" parent="1" vertex="1">
          <mxGeometry x="960" y="1204" width="89" height="40" as="geometry" />
        </mxCell>
        <mxCell id="SLerbbSwyldBixi4_GsX-126" value="&lt;font size=&quot;1&quot; color=&quot;#ffffff&quot;&gt;Remove&lt;/font&gt;" style="rounded=1;whiteSpace=wrap;html=1;fillColor=#FF3D1F;strokeColor=#FFFFFF;" parent="1" vertex="1">
          <mxGeometry x="713" y="1349.53" width="89" height="40" as="geometry" />
        </mxCell>
        <mxCell id="SLerbbSwyldBixi4_GsX-127" value="&lt;div style=&quot;border-color: var(--border-color); font-size: 7px;&quot;&gt;&lt;br&gt;&lt;/div&gt;" style="text;html=1;strokeColor=none;fillColor=none;align=center;verticalAlign=middle;whiteSpace=wrap;rounded=0;" parent="1" vertex="1">
          <mxGeometry x="762" y="1309" width="40" height="23.06" as="geometry" />
        </mxCell>
        <mxCell id="SLerbbSwyldBixi4_GsX-128" value="&lt;font color=&quot;#ffffff&quot;&gt;&lt;span style=&quot;font-size: 10px;&quot;&gt;Next&lt;/span&gt;&lt;/font&gt;" style="rounded=1;whiteSpace=wrap;html=1;fillColor=#FF3D1F;strokeColor=#FFFFFF;" parent="1" vertex="1">
          <mxGeometry x="1290" y="1100" width="90" height="33.84" as="geometry" />
        </mxCell>
        <mxCell id="SLerbbSwyldBixi4_GsX-132" value="" style="endArrow=classic;html=1;rounded=0;exitX=0.444;exitY=-0.004;exitDx=0;exitDy=0;entryX=0.483;entryY=0.988;entryDx=0;entryDy=0;exitPerimeter=0;entryPerimeter=0;" parent="1" source="SLerbbSwyldBixi4_GsX-124" target="SLerbbSwyldBixi4_GsX-82" edge="1">
          <mxGeometry width="50" height="50" relative="1" as="geometry">
            <mxPoint x="1060" y="1180" as="sourcePoint" />
            <mxPoint x="1110" y="1130" as="targetPoint" />
          </mxGeometry>
        </mxCell>
        <mxCell id="SLerbbSwyldBixi4_GsX-133" value="&lt;div style=&quot;border-color: var(--border-color); font-size: 7px;&quot;&gt;&lt;span style=&quot;background-color: initial;&quot;&gt;&lt;font color=&quot;#ffffff&quot;&gt;Delegate will be Removed&amp;nbsp;&lt;/font&gt;&lt;/span&gt;&lt;/div&gt;&lt;div style=&quot;border-color: var(--border-color); font-size: 7px;&quot;&gt;&lt;font color=&quot;#ffffff&quot; style=&quot;border-color: var(--border-color);&quot;&gt;and the user will be able to update his own T&amp;amp;E&lt;/font&gt;&lt;/div&gt;" style="rounded=1;whiteSpace=wrap;html=1;fillColor=#FF3D1F;strokeColor=#FFFFFF;" parent="1" vertex="1">
          <mxGeometry x="891" y="1344.77" width="98" height="49.53" as="geometry" />
        </mxCell>
        <mxCell id="SLerbbSwyldBixi4_GsX-135" value="" style="endArrow=classic;html=1;rounded=0;exitX=1;exitY=0.5;exitDx=0;exitDy=0;entryX=0;entryY=0.5;entryDx=0;entryDy=0;" parent="1" source="SLerbbSwyldBixi4_GsX-126" target="SLerbbSwyldBixi4_GsX-133" edge="1">
          <mxGeometry width="50" height="50" relative="1" as="geometry">
            <mxPoint x="840" y="1330" as="sourcePoint" />
            <mxPoint x="890" y="1280" as="targetPoint" />
          </mxGeometry>
        </mxCell>
        <mxCell id="SLerbbSwyldBixi4_GsX-136" value="&lt;span style=&quot;font-size: 5px;&quot;&gt;&lt;b&gt;User Clicks&lt;/b&gt;&lt;/span&gt;" style="text;html=1;strokeColor=none;fillColor=none;align=center;verticalAlign=middle;whiteSpace=wrap;rounded=0;" parent="1" vertex="1">
          <mxGeometry x="760" y="1300" width="40" height="23.06" as="geometry" />
        </mxCell>
        <mxCell id="SLerbbSwyldBixi4_GsX-138" value="Async fire and forget" style="text;html=1;strokeColor=none;fillColor=none;align=center;verticalAlign=middle;whiteSpace=wrap;rounded=0;" parent="1" vertex="1">
          <mxGeometry x="1380" y="1139" width="60" height="30" as="geometry" />
        </mxCell>
        <mxCell id="SLerbbSwyldBixi4_GsX-139" value="" style="endArrow=classic;html=1;rounded=0;entryX=-0.038;entryY=0.467;entryDx=0;entryDy=0;entryPerimeter=0;exitX=1;exitY=0.5;exitDx=0;exitDy=0;" parent="1" source="SLerbbSwyldBixi4_GsX-94" target="SLerbbSwyldBixi4_GsX-128" edge="1">
          <mxGeometry width="50" height="50" relative="1" as="geometry">
            <mxPoint x="1219.5" y="1083" as="sourcePoint" />
            <mxPoint x="1269.5" y="1033" as="targetPoint" />
          </mxGeometry>
        </mxCell>
        <mxCell id="SLerbbSwyldBixi4_GsX-141" value="" style="endArrow=classic;html=1;rounded=0;exitX=1;exitY=0.5;exitDx=0;exitDy=0;entryX=0.145;entryY=1;entryDx=0;entryDy=-4.35;entryPerimeter=0;" parent="1" source="SLerbbSwyldBixi4_GsX-128" target="sCX7qENGcsBtxhSft7dQ-116" edge="1">
          <mxGeometry width="50" height="50" relative="1" as="geometry">
            <mxPoint x="1630" y="1143.84" as="sourcePoint" />
            <mxPoint x="2430" y="760" as="targetPoint" />
            <Array as="points">
              <mxPoint x="1650" y="1120" />
              <mxPoint x="1650" y="800" />
              <mxPoint x="2040" y="800" />
              <mxPoint x="2429" y="800" />
            </Array>
          </mxGeometry>
        </mxCell>
        <mxCell id="SLerbbSwyldBixi4_GsX-142" value="" style="endArrow=classic;html=1;rounded=0;entryX=0;entryY=0;entryDx=120.00000000000001;entryDy=50;entryPerimeter=0;exitX=0.5;exitY=1;exitDx=0;exitDy=0;" parent="1" source="SLerbbSwyldBixi4_GsX-128" target="sCX7qENGcsBtxhSft7dQ-175" edge="1">
          <mxGeometry width="50" height="50" relative="1" as="geometry">
            <mxPoint x="1327" y="1177.24" as="sourcePoint" />
            <mxPoint x="2494" y="357.2399999999999" as="targetPoint" />
            <Array as="points">
              <mxPoint x="1335" y="1200" />
              <mxPoint x="2880" y="1200" />
              <mxPoint x="2880" y="319" />
            </Array>
          </mxGeometry>
        </mxCell>
        <mxCell id="SLerbbSwyldBixi4_GsX-143" value="" style="endArrow=classic;html=1;rounded=0;exitX=0.302;exitY=1.018;exitDx=0;exitDy=0;exitPerimeter=0;entryX=0.236;entryY=0.017;entryDx=0;entryDy=0;entryPerimeter=0;" parent="1" source="SLerbbSwyldBixi4_GsX-43" target="sCX7qENGcsBtxhSft7dQ-116" edge="1">
          <mxGeometry width="50" height="50" relative="1" as="geometry">
            <mxPoint x="2420" y="550" as="sourcePoint" />
            <mxPoint x="2470" y="500" as="targetPoint" />
          </mxGeometry>
        </mxCell>
        <mxCell id="SLerbbSwyldBixi4_GsX-144" value="Save" style="text;html=1;strokeColor=none;fillColor=none;align=center;verticalAlign=middle;whiteSpace=wrap;rounded=0;" parent="1" vertex="1">
          <mxGeometry x="1219.5" y="1089.84" width="60" height="30" as="geometry" />
        </mxCell>
        <mxCell id="SLerbbSwyldBixi4_GsX-145" value="" style="endArrow=classic;html=1;rounded=0;entryX=0.998;entryY=0.393;entryDx=0;entryDy=0;entryPerimeter=0;" parent="1" target="sCX7qENGcsBtxhSft7dQ-175" edge="1">
          <mxGeometry width="50" height="50" relative="1" as="geometry">
            <mxPoint x="1160" y="1373" as="sourcePoint" />
            <mxPoint x="2530" y="300" as="targetPoint" />
            <Array as="points">
              <mxPoint x="2920" y="1373" />
              <mxPoint x="2920" y="300" />
            </Array>
          </mxGeometry>
        </mxCell>
        <mxCell id="SLerbbSwyldBixi4_GsX-146" value="&lt;font color=&quot;#ffffff&quot;&gt;&lt;span style=&quot;font-size: 10px;&quot;&gt;Next&lt;/span&gt;&lt;/font&gt;" style="rounded=1;whiteSpace=wrap;html=1;fillColor=#FF3D1F;strokeColor=#FFFFFF;" parent="1" vertex="1">
          <mxGeometry x="1070" y="1352.6100000000001" width="90" height="33.84" as="geometry" />
        </mxCell>
        <mxCell id="SLerbbSwyldBixi4_GsX-147" value="" style="endArrow=classic;html=1;rounded=0;entryX=0;entryY=0.5;entryDx=0;entryDy=0;exitX=-0.034;exitY=0.89;exitDx=0;exitDy=0;exitPerimeter=0;" parent="1" source="SLerbbSwyldBixi4_GsX-148" target="SLerbbSwyldBixi4_GsX-146" edge="1">
          <mxGeometry width="50" height="50" relative="1" as="geometry">
            <mxPoint x="990.5" y="1371.93" as="sourcePoint" />
            <mxPoint x="1057.5" y="1370.93" as="targetPoint" />
          </mxGeometry>
        </mxCell>
        <mxCell id="SLerbbSwyldBixi4_GsX-148" value="Save" style="text;html=1;strokeColor=none;fillColor=none;align=center;verticalAlign=middle;whiteSpace=wrap;rounded=0;" parent="1" vertex="1">
          <mxGeometry x="990" y="1344.77" width="60" height="30" as="geometry" />
        </mxCell>
        <mxCell id="SLerbbSwyldBixi4_GsX-149" value="" style="endArrow=classic;html=1;rounded=0;exitX=0.5;exitY=0;exitDx=0;exitDy=0;entryX=0.377;entryY=1.006;entryDx=0;entryDy=0;entryPerimeter=0;jumpStyle=arc;" parent="1" source="SLerbbSwyldBixi4_GsX-146" target="sCX7qENGcsBtxhSft7dQ-116" edge="1">
          <mxGeometry width="50" height="50" relative="1" as="geometry">
            <mxPoint x="1110" y="1352.61" as="sourcePoint" />
            <mxPoint x="2660" y="1290" as="targetPoint" />
            <Array as="points">
              <mxPoint x="1115" y="1280" />
              <mxPoint x="2460" y="1280" />
            </Array>
          </mxGeometry>
        </mxCell>
      </root>
    </mxGraphModel>
  </diagram>
</mxfile>
